<svg width="445" height="445" viewBox="0 0 445 445" fill="none" xmlns="http://www.w3.org/2000/svg">
    <rect width="215" height="215" rx="16" fill="#F0F3FF"/>
    <rect x="230" width="215" height="215" rx="16" fill="#F3F5F6"/>
    <rect y="230" width="215" height="215" rx="16" fill="#F3F5F6"/>
    <rect x="230" y="230" width="215" height="215" rx="16" fill="#F0F3FF"/>
    <path d="M385.135 302.146c-3.24-6.109-12.644-9.52-16.941-10.461l-8.833-.555-9.438 2.509-13.353 9.871c7.63 8.027 25.412 23.401 35.495 20.678 12.604-3.402 17.12-14.405 13.07-22.042z" fill="#1737A9"/>
    <path d="M302.865 339.551c1.213 8.58-3.142 16.289-9.726 17.22-6.585.931-12.905-5.27-14.118-13.85-1.213-8.58 3.142-16.289 9.726-17.22 6.585-.93 12.906 5.27 14.118 13.85z" fill="#FFCE94"/>
    <path fill-rule="evenodd" clip-rule="evenodd" d="M291.426 335.22c-1.704.241-4.847 3.263-2.674 8.482a1.633 1.633 0 1 1-3.016 1.256c-2.834-6.806 1.014-12.377 5.233-12.973 2.362-.334 4.379 1.171 5.749 3.034 1.415 1.924 2.449 4.6 2.868 7.567a1.633 1.633 0 1 1-3.235.457c-.359-2.539-1.23-4.679-2.266-6.089-1.081-1.471-2.06-1.819-2.659-1.734z" fill="#F4B56B"/>
    <path d="M369.508 339.551c-1.212 8.58 3.142 16.289 9.727 17.22 6.584.931 12.905-5.27 14.118-13.85 1.212-8.58-3.142-16.289-9.727-17.22-6.584-.93-12.905 5.27-14.118 13.85z" fill="#FFCE94"/>
    <path fill-rule="evenodd" clip-rule="evenodd" d="M380.948 335.22c1.704.241 4.847 3.263 2.673 8.482a1.633 1.633 0 1 0 3.017 1.256c2.834-6.806-1.014-12.377-5.233-12.973-2.362-.334-4.38 1.171-5.75 3.034-1.414 1.924-2.448 4.6-2.868 7.567a1.634 1.634 0 0 0 3.236.457c.359-2.539 1.229-4.679 2.265-6.089 1.081-1.471 2.06-1.819 2.66-1.734z" fill="#F4B56B"/>
    <path d="M381.389 338.549c0 24.964-20.238 45.202-45.202 45.202-24.965 0-45.202-20.238-45.202-45.202 0-24.965 20.237-45.202 45.202-45.202 24.964 0 45.202 20.237 45.202 45.202z" fill="#FFD29C"/>
    <path fill-rule="evenodd" clip-rule="evenodd" d="M351.623 296.1c14.975 5.389 26.287 18.454 29.19 34.448-14.975-5.39-26.287-18.454-29.19-34.448zM319.304 296.363c-2.993 15.393-13.63 28.035-27.774 33.765 2.993-15.394 13.63-28.036 27.774-33.765z" fill="#525252"/>
    <path fill-rule="evenodd" clip-rule="evenodd" d="M303.511 307.312c8.253-8.765 19.842-14.217 32.676-14.217 12.834 0 24.423 5.452 32.676 14.217-8.253 6.008-19.842 9.745-32.676 9.745-12.834 0-24.423-3.737-32.676-9.745z" fill="#212121"/>
    <path fill-rule="evenodd" clip-rule="evenodd" d="M292.738 323.994c-.266-4.537-.738-12.579 1.556-21.914 2.423-9.858 11.115-17.307 26.969-21.171 12.252-2.987 33.981-2.281 41.786 10.597l-3.818-.244-9.697 2.545-11.241 8.239c-7.374 1.198-16.421 3.193-22.582 6.078-11.623 5.442-20.467 10.216-22.878 17.648-.021-.511-.056-1.106-.095-1.778z" fill="#3661F7"/>
    <path d="M332.699 298.39c-7.305 3.374-14.401 7.694-17.752 9.954 4.675-.447 15.113-1.419 19.469-1.734 5.445-.393 12.348-8.343 18.404-12.455 4.845-3.289 12.268-3.017 15.373-2.47-4.451-.852-8.546-1.588-14.456-.366s-11.396 2.617-21.038 7.071z" fill="#567BFF"/>
    <path fill-rule="evenodd" clip-rule="evenodd" d="M319.298 324.77c-1.851.788-3.04 1.889-3.499 2.645a1.633 1.633 0 1 1-2.793-1.695c.903-1.488 2.71-2.976 5.011-3.957 2.344-.998 5.317-1.523 8.645-.948a1.634 1.634 0 0 1-.556 3.22c-2.663-.46-5-.036-6.808.735zM353.076 324.77c1.851.788 3.039 1.889 3.498 2.645a1.633 1.633 0 1 0 2.794-1.695c-.903-1.488-2.71-2.976-5.011-3.957-2.344-.998-5.318-1.523-8.646-.948a1.633 1.633 0 1 0 .557 3.22c2.662-.46 4.999-.036 6.808.735z" fill="#000"/>
    <path d="M347.079 347.522c-6.632-1.072-16.371-1.072-21.24 0 0 3.28 1.677 9.543 10.914 9.543 8.37 0 10.326-6.671 10.326-9.543z" fill="#C32C2C"/>
    <path fill-rule="evenodd" clip-rule="evenodd" d="M346.134 347.228c-6.185-.922-14.714-.926-19.46-.014 1.06 1.955 3.766 3.97 10.074 3.97 5.586 0 8.254-2.05 9.386-3.956z" fill="#FFF8F3"/>
    <path fill-rule="evenodd" clip-rule="evenodd" d="M317.253 335.093c-.535.902-.702 2.061-.668 2.839a1.633 1.633 0 1 1-3.264.144c-.054-1.219.176-3.055 1.122-4.65 1.007-1.697 2.798-3.046 5.548-3.046 2.743 0 4.561 1.339 5.621 3.002 1.004 1.575 1.317 3.399 1.317 4.622a1.635 1.635 0 0 1-3.268 0c0-.774-.218-1.945-.805-2.866-.531-.833-1.364-1.491-2.865-1.491-1.492 0-2.264.648-2.738 1.446zM354.548 335.125c.558.895.731 2.04.695 2.803a1.634 1.634 0 0 0 3.265.152c.057-1.234-.189-3.084-1.189-4.685-1.064-1.704-2.925-3.015-5.747-3.015-2.816 0-4.704 1.302-5.823 2.97-1.06 1.58-1.393 3.416-1.393 4.654a1.634 1.634 0 1 0 3.267 0c0-.759.225-1.918.84-2.834.556-.828 1.459-1.523 3.109-1.523 1.644 0 2.481.686 2.976 1.478z" fill="#000"/>
    <path d="M272.753 357.397c-1.036-2.646-4.457-4.278-7.103-3.242-3.529 1.381-4.507 5.253-3.125 8.782l3.145 7.248c1.381 3.528 4.926 4.942 8.455 3.56a5.145 5.145 0 0 0 2.915-6.667l-4.287-9.681z" fill="#FFC785"/>
    <path d="M286.478 365.389a6.861 6.861 0 0 0-9.235-2.976l-8.141 4.173a9.148 9.148 0 0 0-3.968 12.314l6.259 12.211a9.148 9.148 0 0 0 12.314 3.968l8.141-4.173a6.861 6.861 0 0 0 2.976-9.235l-8.346-16.282z" fill="#FFD29C"/>
    <path fill-rule="evenodd" clip-rule="evenodd" d="m286.739 365.898-12.212 6.259a1.143 1.143 0 1 0 1.044 2.035l12.211-6.259-1.043-2.035zM290.129 372.512l-12.211 6.26a1.143 1.143 0 1 0 1.043 2.035l12.211-6.259-1.043-2.036zM293.52 379.127l-12.212 6.259a1.143 1.143 0 1 0 1.043 2.035l12.212-6.259-1.043-2.035z" fill="#F4B56B"/>
    <path fill-rule="evenodd" clip-rule="evenodd" d="m407.602 303.626.154-1.079.016.003c.58.082 1.442.205 2.323.442.876.236 1.872.609 2.662 1.251l.28.229h.001c.685.559 1.219.995 1.852 1.357.463.264.987.492 1.657.666.582.151.999.693.914 1.288-.084.596-.638 1.016-1.224.879a8.853 8.853 0 0 1-2.428-.942c-.8-.458-1.483-1.015-2.152-1.563l-.274-.223c-.431-.35-1.061-.619-1.792-.821l-1.754 12.292-.001.007c-.298 2.084-2.953 3.429-5.93 3.004-2.978-.424-5.15-2.459-4.853-4.543.297-2.084 2.952-3.429 5.93-3.005 1.214.174 2.294.614 3.127 1.217l1.492-10.459z" fill="#212121"/>
    <rect x="49" y="60.49" width="121" height="98.461" rx="8" fill="#E3A963"/>
    <rect opacity=".24" x="136.48" y="134.336" width="26.162" height="18.051" rx="4" fill="#EAEAEA"/>
    <rect opacity=".12" x="141.19" y="140.004" width="17.286" height="2.305" rx="1.152" fill="#212121"/>
    <rect opacity=".12" x="141.19" y="144.614" width="10.371" height="2.305" rx="1.152" fill="#212121"/>
    <path d="M98.872 60.49h19.621l-1.431 11.077 3.884 13.128-8.993 2.872-.818 2.051-3.679.82-10.015-18.87 1.43-11.078zM117.88 158.951H98.259l1.43-6.564.409-10.667 6.541-1.23 7.766.41h4.088l.409 11.077-1.022 6.974z" fill="#2E58EC"/>
    <path d="m104.186 73.208 6.949 16.41.818-2.051-7.767-14.359zM109.091 152.387h-9.402l-.409 1.641 9.811-1.641z" fill="#000" fill-opacity=".12"/>
    <path d="M295.978 140.309c5.745-9.02 13.15-10.934 16.342-8.9 5.704 3.633 9.205 13.01 3.46 22.03-5.746 9.02-18.563 14.268-24.267 10.635-4.962-5.284-1.281-14.745 4.465-23.765z" fill="#2E58EC"/>
    <path d="M380.743 104.93c0 25.164-20.4 45.563-45.564 45.563s-45.563-20.399-45.563-45.563 20.399-45.563 45.563-45.563 45.564 20.4 45.564 45.563z" fill="#38C4F7"/>
    <mask id="gxwiuvkqda" style="mask-type:alpha" maskUnits="userSpaceOnUse" x="289" y="59" width="92" height="92">
        <path d="M380.743 104.93c0 25.164-20.4 45.563-45.564 45.563s-45.563-20.399-45.563-45.563 20.399-45.563 45.563-45.563 45.564 20.4 45.564 45.563z" fill="#27C6F8"/>
    </mask>
    <g mask="url(#gxwiuvkqda)">
        <path d="M329.769 73.036c-17.542-5.012-12.056-16.897-7.119-22.212h60.94c1.424 0 25.63 30.47 19.365 42.715-6.265 12.245-26.769 21.928-36.166 3.702-9.398-18.225-15.093-17.94-37.02-24.205zM310.974 97.241c-13.669-11.618-25.06-10.916-29.047-9.112-1.044 11.39-2.79 40.722-1.424 66.921 1.709 32.748 25.06-2.848 27.623-19.08 2.563-16.232 19.934-24.205 2.848-38.729zM351.127 134.546c-9.398 5.126-9.683 9.682-3.418 28.762 6.36-1.329 20.732-5.24 27.338-10.252 8.259-6.265 13.384-12.53 0-17.086-13.384-4.556-14.523-6.55-23.92-1.424zM318.663 141.096c-3.19-2.734 1.329-5.506 3.987-6.55 8.258-3.987 13.384 5.126 9.682 8.543-3.702 3.418-9.682 1.424-13.669-1.993z" fill="#38F7BE"/>
        <path d="M364.944 91.728c.702 4.348-1.497 8.319-4.912 8.871-3.416.553-6.755-2.524-7.458-6.871-.702-4.347 1.497-8.32 4.913-8.871 3.415-.552 6.754 2.524 7.457 6.871zM334.583 96.637c.702 4.347-1.497 8.319-4.913 8.871-3.415.552-6.754-2.524-7.457-6.872-.702-4.347 1.497-8.319 4.913-8.87 3.415-.553 6.754 2.523 7.457 6.87z" fill="#000"/>
        <path fill-rule="evenodd" clip-rule="evenodd" d="M346.58 113.543c-2.413.147-4.443-.526-6.446-2.71a2.277 2.277 0 1 0-3.359 3.078c3.012 3.286 6.454 4.443 10.259 4.168l.122-.009.121-.022c4.693-.852 7.553-4.328 8.762-6.79a2.28 2.28 0 0 0-4.09-2.008c-.803 1.635-2.631 3.746-5.369 4.293zM321.169 81.523c2.908 1.94 7.819 3.035 12.12 3.035a2.278 2.278 0 1 1 0 4.556c-4.811 0-10.722-1.182-14.647-3.8a2.278 2.278 0 1 1 2.527-3.79zM360.705 73.969c-1.873 2.951-5.918 5.943-9.85 7.686a2.278 2.278 0 1 0 1.846 4.166c4.399-1.95 9.323-5.427 11.851-9.41a2.278 2.278 0 1 0-3.847-2.442z" fill="#000"/>
    </g>
    <path fill-rule="evenodd" clip-rule="evenodd" d="M362.693 62.258a4.556 4.556 0 0 1-1.352 6.3c-7.95 5.141-19.675 8.631-31.386 10.88-11.833 2.271-24.203 3.376-33.823 3.469a4.556 4.556 0 1 1-.088-9.112c9.085-.088 20.909-1.14 32.193-3.307 11.406-2.19 21.718-5.419 28.156-9.582a4.556 4.556 0 0 1 6.3 1.352z" fill="#2E58EC"/>
    <path fill-rule="evenodd" clip-rule="evenodd" d="M288.021 67.967a4.556 4.556 0 0 1 6.379.911l6.473 8.63-7.809 9.043a4.556 4.556 0 1 1-6.896-5.957l3.012-3.488-2.07-2.76a4.556 4.556 0 0 1 .911-6.379z" fill="#2E58EC"/>
    <path d="M393.543 154.453c-5.46 9.196-12.8 11.34-16.055 9.408-5.815-3.452-9.609-12.715-4.149-21.911 5.459-9.196 18.105-14.843 23.92-11.391 5.126 5.126 1.744 14.698-3.716 23.894z" fill="#2E58EC"/>
    <ellipse opacity=".24" cx="387.836" cy="147.723" rx="7.167" ry="17.641" transform="rotate(30.698 387.836 147.723)" fill="#000"/>
    <path d="M269.74 53.718c5.703 1.924 8.67 9.558 9.933 12.166-6.061-2.33-9.802-2.135-14.561-3.188-7.69-1.702-5.06-12.247 4.628-8.978zM266.634 70.23c3.293-1.38 7.607.853 9.192 1.519-3.611 1.34-5.199 2.893-7.73 4.29-4.09 2.26-7.054-3.464-1.462-5.809z" fill="#38C4F7"/>
    <rect x="62.201" y="363.19" width="12.712" height="27.379" rx="6.356" fill="#212121"/>
    <rect x="74.912" y="363.19" width="12.712" height="27.379" rx="6.356" fill="#212121"/>
    <rect x="141.403" y="363.19" width="12.712" height="27.379" rx="6.356" fill="#212121"/>
    <rect x="128.692" y="363.19" width="12.712" height="27.379" rx="6.356" fill="#212121"/>
    <path fill="#000" d="M64.645 364.656h87.025v10.756H64.645z"/>
    <path fill="#3A5CD1" d="M64.645 372.479h87.025v2.933H64.645z"/>
    <path fill-rule="evenodd" clip-rule="evenodd" d="M61.312 360.745a4 4 0 0 0-4 4v7.645a4 4 0 0 0 4 4h93.692a4 4 0 0 0 4-4v-7.645a4 4 0 0 0-4-4H61.312zm15.022 9.778a4 4 0 0 0-3.948 3.359l-.407 2.508h72.358l-.407-2.508a4 4 0 0 0-3.948-3.359H76.334z" fill="#436AF4"/>
    <path fill="#436AF4" d="M59.267 336.3h97.781v24.445H59.267z"/>
    <path d="M62.062 299.271c.63-8.345 7.585-14.795 15.954-14.795H138.3c8.37 0 15.325 6.45 15.955 14.795l2.794 37.029H59.267l2.795-37.029z" fill="#2E58EC"/>
    <circle cx="65.134" cy="368.568" r="3.911" fill="#fff"/>
    <circle cx="151.182" cy="368.568" r="3.911" fill="#fff"/>
    <path fill="#2E58EC" d="M59.267 348.034h97.781v12.712H59.267z"/>
    <path d="M59.267 336.3a14.838 14.838 0 0 1 11.11 12.435l1.602 12.01H59.267V336.3z" fill="#FF862E"/>
    <path d="M59.267 360.745h12.712l-1.695-12.711H59.267v12.711z" fill="#fff"/>
    <path d="M157.048 336.3a14.838 14.838 0 0 0-11.11 12.435l-1.601 12.01h12.711V336.3z" fill="#FF862E"/>
    <path d="M157.048 360.745h-12.711l1.695-12.711h11.016v12.711z" fill="#fff"/>
    <rect x="98.424" y="361.278" width="19.468" height="8.712" rx="4.356" fill="#8DA6FF" stroke="#3A5CD1" stroke-width="4"/>
    <path d="M156.56 309.608a4.001 4.001 0 0 1 3.602-3.981l2.022-.202a4 4 0 0 1 4.392 3.752l.529 9.253a4 4 0 0 1-3.453 4.191l-2.552.348a3.999 3.999 0 0 1-4.54-3.963v-9.398z" fill="#2E58EC"/>
    <path d="m154.604 319.188 3.911-1.467v3.423l-3.911 2.444v-4.4z" fill="#2E58EC"/>
    <path d="M72.957 320.655c0-5.941 4.815-10.756 10.755-10.756h7.823c5.94 0 10.756 4.815 10.756 10.756H72.957zM77.846 302.076a5.867 5.867 0 0 1 5.866-5.867h7.823a5.866 5.866 0 1 1 0 11.734h-7.823a5.866 5.866 0 0 1-5.867-5.867zM114.025 320.655c0-5.941 4.815-10.756 10.756-10.756h7.822c5.94 0 10.756 4.815 10.756 10.756h-29.334zM118.914 302.076a5.867 5.867 0 0 1 5.867-5.867h7.822a5.867 5.867 0 1 1 0 11.734h-7.822a5.866 5.866 0 0 1-5.867-5.867z" fill="#fff"/>
    <path d="M59.756 309.608a4.001 4.001 0 0 0-3.602-3.981l-2.023-.202a4 4 0 0 0-4.391 3.752l-.529 9.253a4 4 0 0 0 3.453 4.191l2.551.348a4 4 0 0 0 4.541-3.963v-9.398z" fill="#2E58EC"/>
    <path d="m61.712 319.188-3.912-1.467v3.423l3.912 2.444v-4.4z" fill="#2E58EC"/>
    <mask id="ard2omfmfb" style="mask-type:alpha" maskUnits="userSpaceOnUse" x="62" y="285" width="92" height="40">
        <path d="M63.64 298.894c.549-7.305 6.635-12.952 13.96-12.952h61.115c7.325 0 13.412 5.647 13.961 12.952l1.121 14.923c.435 5.802-4.154 10.749-9.972 10.749H72.491c-5.818 0-10.408-4.947-9.972-10.749l1.121-14.923z" fill="#D9E3FC"/>
    </mask>
    <g mask="url(#ard2omfmfb)">
        <path fill="#212121" d="M59.267 319.677h97.293v20.045H59.267z"/>
        <circle cx="128.692" cy="324.077" r="6" stroke="#212121" stroke-width="11.467"/>
    </g>
    <path opacity=".8" d="M77.6 286.942h61.115c6.802 0 12.454 5.244 12.963 12.027l1.121 14.923c.393 5.221-3.738 9.674-8.974 9.674H72.491c-5.236 0-9.367-4.453-8.975-9.674l1.121-14.923c.51-6.783 6.162-12.027 12.964-12.027z" fill="#D9E3FC" stroke="#1F46D1" stroke-width="2"/>
    <path d="M72.468 321.144h15.645v1.467l-15.645-.978v-.489zM88.48 321.144l19.208 3.673-.367 1.921-19.117-4.153.276-1.441z" fill="#212121"/>
    <circle cx="88.357" cy="321.877" r="1.222" fill="#212121"/>
    <circle cx="106.936" cy="325.788" r="1.222" fill="#212121"/>
    <path d="M105.713 321.144h15.645v1.467l-15.645-.978v-.489zM121.725 321.144l19.209 3.673-.368 1.921-19.116-4.153.275-1.441z" fill="#212121"/>
    <circle cx="121.603" cy="321.877" r="1.222" fill="#212121"/>
    <circle cx="140.181" cy="325.788" r="1.222" fill="#212121"/>
    <path d="M161.385 335.161a7.987 7.987 0 0 1-2.29-5.98l.301-6.416a7.987 7.987 0 0 1 7.72-7.609l6.42-.207a7.987 7.987 0 0 1 5.947 2.376l13.911 14.116a7.987 7.987 0 0 1-.082 11.294l-6.721 6.624a7.988 7.988 0 0 1-11.295-.082l-13.911-14.116z" fill="#58BF9A"/>
    <path fill-rule="evenodd" clip-rule="evenodd" d="M175.836 337.295a2.932 2.932 0 0 0 .029-4.148 2.933 2.933 0 1 0-4.177 4.117 2.933 2.933 0 0 0 4.148.031zm-1.03-1.045a1.466 1.466 0 1 0-2.058-2.089 1.466 1.466 0 0 0 2.058 2.089z" fill="#fff"/>
    <path d="m176.871 328.035 1.459-1.438 3.414 15.864-1.459 1.437-3.414-15.863z" fill="#fff"/>
    <path fill-rule="evenodd" clip-rule="evenodd" d="M186.927 333.232a2.934 2.934 0 0 1-.028 4.149 2.935 2.935 0 0 1-4.12-4.181 2.934 2.934 0 0 1 4.148.032zm-1.044 1.029a1.467 1.467 0 1 1-2.089 2.061 1.467 1.467 0 0 1 2.089-2.061z" fill="#fff"/>
    <path d="M165.923 319.608a1.446 1.446 0 1 1-2.058 2.029 1.446 1.446 0 1 1 2.058-2.029z" fill="#2E58EC" stroke="#F4B56B" stroke-width="2"/>
</svg>
