<svg width="637" height="408" viewBox="0 0 637 408" fill="none" xmlns="http://www.w3.org/2000/svg">
    <path opacity=".06" d="M104.393 317.027c-20.93 6.201-43.34 24.635-21.085 35.293 34.976 16.76 75.968 12.985 159.299 31.651 79.719 17.875 135.198 10.899 169.229-17.279 72.207-59.805 111.137-24.1 157.794-41.859 46.658-17.76 45.612-36.418 22.822-41.317-22.791-4.899-273.909-21.48-273.909-21.48l-214.15 54.991z" fill="#0C101C"/>
    <path d="M428.594 278.532s9.79 2.232 19.332 4.984c9.543 2.752 20.233 1.636 28.031-3.481 7.798-5.116 12.178-6.604 12.178-6.604l27.325 1.667 53.177-77.518-182.321 29.162 42.278 51.79z" fill="#0C101C" stroke="#0C101C" stroke-width="1.3" stroke-linecap="round" stroke-linejoin="round"/>
    <path d="M633.906 176.426v0c-.526-7.01-.393-14.054.396-21.039l.938-.116v-2.876l-10.155-1.201v0l-165.709-6.062v0a303.002 303.002 0 0 0-1.659-15.93c-1.853-14.271-12.403-76.743-14.729-91.401-2.325-14.659-14.433-21.914-18.301-21.914h-9.326c7.752 6.426 13.217 17.984 18.814 37.34 8.596 29.728 13.953 58.254 15.984 86.61 2.031 28.356-2.233 84.208-2.752 90.052a74.699 74.699 0 0 1-2.062 11.496c-.861 18.039-.171 19.24-1.031 25.775 0 .163-.054.325-.085.48l7.565 2.613 27.318-8.527 4.899-13.48v-16.372l101.71-20.325v0l16.031 2.542v7.985l24.984 1.868c.313.098.645.122.969.07v-20.853l1.217-.24 1.829-4.194 5.248-1.023v-12.356a19.683 19.683 0 0 0-2.093-8.922v0z" fill="#fff" stroke="#0C101C" stroke-width="1.3" stroke-linecap="round" stroke-linejoin="round"/>
    <path d="M28.168 105.869c2.915-.116 11.054 3.163 13.24 4.256 2.186 1.093 1.264 8.526 1.264 8.526v0c2.589-4.395 5.713-9.426 9.48-15.247.17-.272.357-.543.543-.775l-2.411-2.194s-4.14 7.325-7.752 6.201c-3.1-.961-12.751-4.604-16.449-7.07.074 2.702-.6 5.371-1.946 7.714-.256.457-.535.93-.837 1.403.047-.078 1.985-2.69 4.868-2.814z" fill="#0C101C" stroke="#0C101C" stroke-width="1.3" stroke-linecap="round" stroke-linejoin="round"/>
    <path d="M66.952 82.947s1.357-5.48-1.225-6.201c-2.581-.721-10.472-1.341-11.86 2.093-1.387 3.434-8.76 26.511-3.783 27.782" fill="#fff"/>
    <path d="M66.952 82.947s1.357-5.48-1.225-6.201c-2.581-.721-10.472-1.341-11.86 2.093-1.387 3.434-8.76 26.511-3.783 27.782" stroke="#0C101C" stroke-width="1.3" stroke-linecap="round" stroke-linejoin="round"/>
    <path d="m627.683 224.013-25.953-1.93v-7.992l-16.008-2.542 41.961-8.388v20.852z" fill="#0C101C" stroke="#0C101C" stroke-width="1.3" stroke-linecap="round" stroke-linejoin="round"/>
    <path d="M567.475 233.424c4.535.589 12.403 9.302 13.589 24.356 1.186 15.054-.512 28.999-5.426 41.635-4.915 12.635-12.76 14.302-19.333 14.178-6.574-.124-23.07-1.295-27.193-1.551-4.124-.255-10.574-5.023-13.535-15.464-2.636-9.303-4.186-20.015-.775-38.922 3.411-18.907 23.224-28.1 52.673-24.232zM372.138 252.175c-3.791-.372-10.124-.511-17.124-.542-13.845 17.666-22.697 44.355-23.255 46.836-.861 3.775-3.775 8.418-3.775 8.418.682 4.985-9.302 14.953-9.302 14.953s-4.744 1.225-11.977 2.861v0c.465 11.062 2.008 28.069 13.349 39.154 11.34 11.085 24.239 11.085 31.968 10.852 7.728-.232 20.883-1.286 29.387-13.953 8.503-12.666 16.496-34.286 15.465-62.897-1.031-28.612-12.109-44.457-24.736-45.682z" fill="#111521" stroke="#0C101C" stroke-width="1.3" stroke-linecap="round" stroke-linejoin="round"/>
    <path d="M28.952 156.348s-21.31 15.806-16.845 73.208c0 0-9.969 7.217-9.302 21.651a284.616 284.616 0 0 0 3.1 28.875s.342 10.992 3.264 13.062c2.923 2.069 10.31 7.216 19.767 8.247 0 0 5.837 3.605 9.45 4.651 0 0 10.139 3.783 12.03 2.923 0 0 4.295-2.062 16.667 1.891a9.182 9.182 0 0 0 5.844 2.062s7.047-1.031 22.17 2.582a15.728 15.728 0 0 0 9.303 1.55s17.053 1.55 24.743 3.101c0 0 1.551 3.1 6.876 4.124 5.325 1.023 4.814 0 4.814 0s15.123 2.465 19.759.457c0 0 74.758 9.682 99.509 7.752 24.752-1.931 58.596-10.651 58.596-10.651s9.969-9.969 9.302-14.953c0 0 2.922-4.651 3.783-8.419.86-3.767 20.968-63.758 48.634-62.386 27.666 1.372 28.015 40.557 25.953 59.293 0 0 11.511-2.581 13.403-4.124 1.891-1.542 2.573-5.333 2.573-5.333s9.628-2.914 11.52-10.852c0 0 9.62-1.38 10.48-7.907.86-6.527.171-7.752 1.031-25.775a74.748 74.748 0 0 0 2.062-11.519c.519-5.845 4.814-61.696 2.752-90.052-2.062-28.356-7.388-56.882-15.984-86.61-8.597-29.728-16.868-41.03-33.713-43.588-16.844-2.558-72.525-8.613-141.43-6.55-68.906 2.061-109.82 8.588-125.625 17.007-15.806 8.418-56.542 45.2-81.285 83.339-24.744 38.138-21.83 42.797-20.798 46.572 1.03 3.776-2.403 6.372-2.403 6.372z" fill="#fff" stroke="#0C101C" stroke-width="1.3" stroke-linecap="round" stroke-linejoin="round"/>
    <path d="M260.094 332.491c24.743-1.891 58.595-10.651 58.595-10.651s9.969-9.968 9.302-14.953c0 0 2.915-4.651 3.775-8.418.861-3.767 20.969-63.758 48.635-62.386 27.666 1.372 28.015 40.557 25.953 59.293 0 0 11.511-2.581 13.402-4.124 1.892-1.543 2.574-5.333 2.574-5.333s9.628-2.915 11.519-10.853c0 0 9.62-1.379 10.481-7.906.86-6.527.17-7.752 1.03-25.775l-29.65 5.698c-2.581-11.085-11.085-38.41-35.829-37.635-24.743.775-40.223 32.712-40.223 32.712s-63.929 9.302-81.975 10.574c-18.046 1.271-70.89-1.551-70.89-1.551a105.136 105.136 0 0 1-9.535 6.202c-3.876 2.062-53.363-2.791-69.859-4.651-16.495-1.861-67.021-8.527-73.726-10.574-6.706-2.046-1.031-8.759-1.031-8.759-9.024-.264-20.535-3.876-20.535-3.876s-9.969 7.217-9.302 21.65a284.605 284.605 0 0 0 3.1 28.876s.342 10.992 3.264 13.061c2.923 2.07 10.31 7.217 19.767 8.248 0 0 5.837 3.605 9.45 4.651 0 0 10.139 3.783 12.03 2.923 0 0 4.295-2.062 16.667 1.891a9.182 9.182 0 0 0 5.844 2.062s7.047-1.031 22.17 2.582a15.728 15.728 0 0 0 9.303 1.55s17.053 1.55 24.751 3.101c0 0 1.55 3.1 6.868 4.124 5.318 1.023 4.814 0 4.814 0s15.123 2.465 19.759.457c-.008 0 74.75 9.705 99.502 7.79z" fill="#191D28" stroke="#0C101C" stroke-width="1.3" stroke-linecap="round" stroke-linejoin="round"/>
    <path d="M6.612 254.819s7.604 5.666 10.077 7.604c2.473 1.938 2.83 4.512 3.217 6.977.388 2.465 2.706 9.922 2.706 9.922s-12.566-4.488-14.798-9.255c-2.233-4.768-1.202-15.209-1.202-15.209" fill="#E54323"/>
    <path d="M6.612 254.819s7.604 5.666 10.077 7.604c2.473 1.938 2.83 4.512 3.217 6.977.388 2.465 2.706 9.922 2.706 9.922s-12.566-4.488-14.798-9.255c-2.233-4.768-1.202-15.209-1.202-15.209" stroke="#0C101C" stroke-width="1.3" stroke-linecap="round" stroke-linejoin="round"/>
    <path d="M150.71 262.036c2.457.271-3.356 4.124-4 7.604-.643 3.481-1.674 11.473-1.674 11.473s-39.829-4.124-63.735-7.217-53.425-7.752-54.262-8.636c-.838-.883-.729-10.573-.86-13.798-.132-3.224 4.705-4.124 4.705-4.124s66.882 8.845 119.826 14.698z" fill="#1F232D" stroke="#0C101C" stroke-width="1.3" stroke-linecap="round" stroke-linejoin="round"/>
    <path d="M33.061 266.656v0c2.737 13.511 8.605 27.34 8.605 27.34 25.139 8.248 100.408 14.829 100.408 14.829 1.93-4.248 2.961-27.705 2.961-27.705s-39.828-4.124-63.735-7.217c-17.62-2.286-38.255-5.387-48.239-7.247z" fill="#0C101C" stroke="#0C101C" stroke-width="1.3" stroke-linecap="round" stroke-linejoin="round"/>
    <path d="M178.63 302.624s3.272-18.046 12.031-18.558c8.759-.511 33.41-.69 33.41-.69s1.132 15.985-4.194 17.016c-5.325 1.031-41.247 2.232-41.247 2.232z" fill="#E54323" stroke="#0C101C" stroke-width="1.3" stroke-linecap="round" stroke-linejoin="round"/>
    <path clip-rule="evenodd" d="M165.568 313.415s4.124-32.131 13.061-31.62c8.938.512 10.488-1.713 12.031-4.294 0 0 35.232-1.031 43.999-1.031 0 0 3.434 32.821-15.814 34.542-19.247 1.72-53.277 2.403-53.277 2.403z" stroke="#0C101C" stroke-width="1.3" stroke-linecap="round" stroke-linejoin="round"/>
    <path d="M41.665 293.996s-6.201 1.892-6.201 3.613 2.922 8.418 2.922 8.418 10.14 3.783 12.03 2.922c0 0 4.295-2.061 16.667 1.892a9.187 9.187 0 0 0 5.845 2.062s7.046-1.031 22.17 2.581a15.736 15.736 0 0 0 9.302 1.551s17.054 1.55 24.751 3.1c0 0 1.551 3.101 6.868 4.124 4.171.775 4.76.357 4.822.116v-.116s-2.752-9.969-.512-11.341c2.241-1.372 1.744-4.093 1.744-4.093s-75.27-6.581-100.408-14.829z" fill="#1F232D" stroke="#0C101C" stroke-width="1.3" stroke-linecap="round" stroke-linejoin="round"/>
    <path d="M49.053 309.05s-2.388-4.55-.713-5.062c1.674-.512 11.984-.194 14.627 1.674 2.644 1.869 2.21 3.783 4.101 5.179M105.283 317.112s-2.907-4.039-.589-4.039 13.596.349 18.17 1.868a10.98 10.98 0 0 1 6.279 5.179M75.695 312.763s-3.806-4.325-.775-4.519a47.19 47.19 0 0 1 11.984 1.108c5.155 1.016 6.527 4.241 9.1 6.558M190.662 277.501l3.612-14.434M22.587 279.307s1.124 6.271 2.581 9.302a93.527 93.527 0 0 0 3.783 12.806" stroke="#0C101C" stroke-width="1.3" stroke-linecap="round" stroke-linejoin="round"/>
    <path d="M25.17 288.585S7.798 285.12 4.496 269.981M160.585 324.701s3.759-3.876 4.984-11.287c0 0 5.504-8.069 13.062-10.852M158.439 281.113l20.193.682M16.666 262.423s1.457 1.287 5.922 2.062M150.709 262.036s26.03 1.155 38.146 1.031M147.421 267.849l37.705.931 4.93-4.295M10.091 241.796a5.178 5.178 0 0 0 .644 4.124l15.503 5.542 11.798 2.651M30.907 247.339l-8.357-2.535M279.511 313.414l48.464-6.527M422.314 285.919s-9.302 3.101-15.504 3.791M433.834 275.097s-10.853 3.264-26.751 6.876M441.562 245.71l-.341 12.93M437.973 246.184l-.349 12.93M434.369 246.997l-.348 12.93M415.704 247.083l-14.914 2.434" stroke="#0C101C" stroke-width="1.3" stroke-linecap="round" stroke-linejoin="round"/>
    <path d="M41.664 256.113v17.132c0 1.031.519 2.062 2.837 2.387 2.318.326 70.758 8.83 72.308 9.085 1.55.256 3.349-.899 3.349-2.573V266.64c0-1.294-.512-3.1-1.806-3.356-1.295-.256-74.107-8.783-74.107-8.783s-2.581.062-2.581 1.612z" fill="#fff" stroke="#0C101C" stroke-width="1.3" stroke-linecap="round" stroke-linejoin="round"/>
    <path d="m257.684 252.757 1.721-.14c1.55-32.1-.171-73.587-3.954-76.339-3.783-2.752-23.712-3.434-43.991 9.628-20.279 13.061-24.666 65.3-24.666 65.3s52.844 2.838 70.89 1.551zM32.644 233.424c-3.876-29.131-4.04-53.363-3.69-60.58a20.415 20.415 0 0 0-3.783-12.472c-5.9 7.651-16.279 27.387-13.062 69.184 0 0 11.511 3.605 20.535 3.868z" fill="#F3F3F3" stroke="#0C101C" stroke-width="1.3" stroke-linecap="round" stroke-linejoin="round"/>
    <path clip-rule="evenodd" d="M33.675 242.161c6.705 2.062 57.23 8.728 73.727 10.573 16.495 1.845 65.99 6.697 69.858 4.651a105.34 105.34 0 0 0 9.535-6.201c-85.029-5.148-154.151-17.76-154.151-17.76s-5.667 6.698 1.03 8.737z" stroke="#0C101C" stroke-width="1.3" stroke-linecap="round" stroke-linejoin="round"/>
    <path d="M28.953 187.557s83.332 8.348 170.593 13.054M31.355 149.984s84.812 11.326 209.576 10.388c0 0 29.387-.163 50.518-1.194 21.132-1.031 117.827-9.194 117.827-9.194a33.329 33.329 0 0 0 0 18.155" stroke="#0C101C" stroke-width="1.3" stroke-linecap="round" stroke-linejoin="round"/>
    <path d="M234.893 176.023a68.451 68.451 0 0 1 5.008-7.047c2.062-2.325 2.062-4.573 1.031-8.604-1.031-4.031 5.023-22.48 11.472-33.069" stroke="#0C101C" stroke-width="1.3" stroke-linecap="round" stroke-linejoin="round"/>
    <path d="M287.589 132.085s13.178 8.589 17.946 12.031c4.767 3.442 5.527.682 7.364-1.209 1.837-1.892 27.278-33.713 54.596-35.658 27.317-1.946 32.309-2.644 42.797-2.644s13.744-.519 15.635-5.333a112.288 112.288 0 0 1 4.985-10.852c1.721-3.442 1.891-6.202 1.201-9.969-.69-3.767-10.511-39.31-12.527-45.324-2.015-6.016-5.139-10.853-12.356-12.403-7.217-1.55-39.185-5.326-57.231-4.814-18.046.511-24.031 10.659-28.527 20.278-4.496 9.62-28.239 72.727-33.883 95.897zM132.919 24.103c-4.512 1.876-26.55 17.52-52.844 47.177-26.294 29.659-38.146 52.325-31.96 53.356 9.62 1.604 54.13 4.651 114.726 5.155 60.595.504 96.664.519 102.323-7.985 5.659-8.503 32.48-70.339 38.921-83.517 6.442-13.178 6.977-16.752 2.326-18.558-4.651-1.806-153.64-3.876-173.492 4.372z" fill="#191D28" stroke="#0C101C" stroke-width="1.3" stroke-linecap="round" stroke-linejoin="round"/>
    <path d="M86.006 83.652a22.317 22.317 0 0 0-4.295 7.558c-1.201 4.132-4.472 28.015-2.41 29.387 2.061 1.372 4.302 2.581 11.348-2.915 7.046-5.496 29.038-20.278 68.053-19.425 0 0 3.1-14.605 14.604-14.605h8.418l8.938-33.852s-10.651-2.581-3.876-12.72h-12.62a12.932 12.932 0 0 1 3.822-7.217s-33.898 2.062-46.96 7.387c0 0-17.007 7.566-23.372 19.597-6.364 12.03-16.325 21.65-21.65 26.805zM210.769 49.281s-1.55 4.651-3.783 6.356c-2.232 1.706-4.449 31.969-4.449 31.969s7.907-8.597 10.31-10.48c0 0 .69-12.892 2.581-18.047a35.877 35.877 0 0 0 2.062-9.798h-6.721zM296.698 43.095s-11.519.52-15.984 1.372c-4.465.853-6.201 3.272-6.535 8.256-.333 4.984-1.031 23.023-.852 26.464.178 3.442.17 6.016 3.1 7.388-.007 0 13.706-30.248 20.271-43.48z" fill="#292E3A" stroke="#0C101C" stroke-width="1.3" stroke-linecap="round" stroke-linejoin="round"/>
    <path d="M314.937 32.615c1.845.775.574 4.65-.388 6.697-.961 2.047-3.03 6.643-3.612 7.798-.581 1.155.527 2.9-1.442 3.737a2.876 2.876 0 0 1-3.713-3.737c1.031-2.643 4.318-10.178 5.217-12.31.899-2.131 1.915-3.023 3.938-2.185z" fill="#0C101C" stroke="#0C101C" stroke-width="1.3" stroke-linecap="round" stroke-linejoin="round"/>
    <path d="M420.463 145c-3.543-.326-9.139 5.333-8.628 15.426.512 10.093 3.581 14.131 8.628 15.596 5.046 1.465 6.876-8.418 6.876-15.596 0-7.178-1.349-14.907-6.876-15.426z" fill="#DEDEDE" stroke="#0C101C" stroke-width="1.3" stroke-linecap="round" stroke-linejoin="round"/>
    <path d="M411.835 160.426c.365 7.131 2.008 11.224 4.713 13.542a31.153 31.153 0 0 0 3.039-13.387 22.112 22.112 0 0 0-4.124-12.83c-2.209 2.582-3.922 6.9-3.628 12.675z" fill="#0C101C" stroke="#0C101C" stroke-width="1.3" stroke-linecap="round" stroke-linejoin="round"/>
    <path d="M287.589 132.085s-1.752 12.07-2.597 27.348c0 0-4.969 3.101-2.387 8.675 2.581 5.573 3.441 18.798 3.782 31.169.342 12.372 0 50.208 0 50.208-1.031 24.426-5.162 57.03-6.875 63.898-1.713 6.868-9.628 18.217-9.628 18.217M36.859 194.099s.682 7.977 15.116 9.69c14.434 1.713 99.68 9.876 111.361 10.077 11.682.202 21.767.876 26.721-6.317" stroke="#0C101C" stroke-width="1.3" stroke-linecap="round" stroke-linejoin="round"/>
    <path d="M273.296 213.874s4.155-24.534 23.402-29.348c19.248-4.814 106.975-13.744 106.975-13.744M283.552 170.782l118.85-11" stroke="#0C101C" stroke-width="1.3" stroke-linecap="round" stroke-linejoin="round"/>
    <path d="m313.558 170.782 16.317-1.682-.41-2.566-16.233 1.504.326 2.744v0z" fill="#E2E224" stroke="#0C101C" stroke-width="1.3" stroke-linecap="round" stroke-linejoin="round"/>
    <path d="M422.579 43.25c-1.357-4.72-2.473-8.527-3.023-10.123-2.047-6.016-5.14-10.853-12.357-12.403-7.217-1.55-39.185-5.326-57.231-4.814-18.046.511-24.03 10.659-28.526 20.278-.628 1.357-1.644 3.776-2.931 6.977l5.814-.907s37.496-2.132 94.293.775c1.387.132 2.689.178 3.961.217z" fill="#262D3A" stroke="#0C101C" stroke-width="1.3" stroke-linecap="round" stroke-linejoin="round"/>
    <path d="M338.628 41.8c-9.232.218-14.302.505-14.302.505l-5.814.907c-3.062 7.635-7.689 19.79-12.488 32.96l2.527.48s2.054 6.977 2.147 11.985h5.427a128.613 128.613 0 0 1 3.286-7.388c1.838-3.79 9.357-4.589 16.76-4.596-.047-6.465.426-13.884 2.488-17.744l-.031-17.108zM394.937 42.11c-20.93-.65-38.115-.635-50.293-.433v12.589s10.139-2.752 19.588-.86c9.45 1.89 16.674 4.123 17.054 33.169h2.403V53.793c0-6.876 2.411-7.047 12.403-7.395l-1.155-4.287z" fill="#292E3A" stroke="#0C101C" stroke-width="1.3" stroke-linecap="round" stroke-linejoin="round"/>
    <path d="M418.695 167.844a48.92 48.92 0 0 0 2.442 8.325c0 18.318-.458 41.271-1.551 70.014M415.71 104.528s3.589 4.325 4.93 40.472a72.04 72.04 0 0 0-2.131 8.899" stroke="#0C101C" stroke-width="1.3" stroke-linecap="round" stroke-linejoin="round"/>
    <path d="m313.233 168.038-29.681 2.744c.248.853.465 1.791.674 2.799l29.333-2.799-.326-2.744z" fill="#E54323" stroke="#0C101C" stroke-width="1.3" stroke-linecap="round" stroke-linejoin="round"/>
    <path d="m314.162 176.1-.636-5.318-29.332 2.798c.356 1.752.659 3.706.907 5.822l29.061-3.302z" fill="#191D28" stroke="#0C101C" stroke-width="1.3" stroke-linecap="round" stroke-linejoin="round"/>
    <path d="M204.088 200.611s4.651-9.38 13.752-14.364c9.101-4.985 15.504-6.698 23.713-7.558 8.209-.861 11.449-1.698 12.03 3.434.884 7.752 4.566 27.759 1.853 70.766" stroke="#0C101C" stroke-width="1.3" stroke-linecap="round" stroke-linejoin="round"/>
    <path d="M201.405 227.494c-.171-14.054 8.844-22.426 18.899-22.689 10.054-.264 22.557 7.224 22.301 22.689-.255 15.465-20.751 29.775-35.572 15.442" stroke="#0C101C" stroke-width="1.3" stroke-linecap="round" stroke-linejoin="round"/>
    <path d="M194.274 239.223c0 3.876 2.388 6.434 5.962 6.434 3.573 0 5.635-3.21 5.635-6.434 0-3.225-1.55-5.799-6.325-5.799M210.128 220.789s.124-5.62 7.085-5.326c6.961.295 9.41 9.449 6.976 16.411-2.434 6.961-12.403 6.201-14.046 0M209.095 200.611s27.201 1 36.604 1.364c3.349.124 6.829 0 6.705-4.256-.124-4.255-1.806-15.077-1.806-15.077M20.432 222.851c-4.287 0-6.202-6.83-6.287-16.364 0 0-.574-14.729 5.48-14.83 6.055-.1 7.24 10.194 7.101 15.729a39.059 39.059 0 0 1-1.248 8.651M25.022 166.007a12.923 12.923 0 0 1 1.17 7.093 96.987 96.987 0 0 0 0 13.79s-6.441.775-9.534-1.674" stroke="#0C101C" stroke-width="1.3" stroke-linecap="round" stroke-linejoin="round"/>
    <path d="M18.985 183.022s.775-8.759 4.65-14.883M29.494 225.106a3.628 3.628 0 0 1-3.72 2.667c-2.28 0-3.877-1.93-3.706-4.961.17-3.031.953-4.837 3.705-4.961M24.247 210.378c-.38 1.821-1.318 3.651-3.783 3.651-2.768 0-3-6.736-3-6.736s-.706-7.752 3-7.861c1.922-.069 3.038 2.024 3.604 4.117" stroke="#0C101C" stroke-width="1.3" stroke-linecap="round" stroke-linejoin="round"/>
    <path d="M125.872 136.93s1.202 3.775 4.473 4.977c0 0 3.775-1.202 5.155-4.295 0 0-2.411-4.123-5.675-4.465l-3.953 3.783z" fill="#0C101C" stroke="#0C101C" stroke-width="1.3" stroke-linecap="round" stroke-linejoin="round"/>
    <path d="m125.872 136.93-5.713-4.108s.558-3.737 2.86-3.411l6.806 3.736-3.953 3.783z" fill="#0C101C" stroke="#0C101C" stroke-width="1.3" stroke-linecap="round" stroke-linejoin="round"/>
    <path d="m74.145 110.636 49.991 18.457.256 1.07-1.372-.775c-2.326-.326-2.861 3.411-2.861 3.411l1.427 1.023v0l-1.039.504-49.325-21.116s.737-2.403 2.923-2.574z" fill="#0C101C" stroke="#0C101C" stroke-width="1.3" stroke-linecap="round" stroke-linejoin="round"/>
    <path d="M71.222 113.21s-16.535-.814-19.38-1.07c-2.844-.256-1.48-2.907 1.35-2.775 2.829.132 20.93 1.271 20.93 1.271a3.543 3.543 0 0 0-2.9 2.574v0zM134.167 135.822v0c.494.558.94 1.157 1.334 1.79-1.38 3.101-5.155 4.295-5.155 4.295a6.135 6.135 0 0 1-1.907-1.14v0s.55 5.078 5 2.69c4.449-2.388 6.488-7.287.728-7.635zM220.304 145c-2.031.356-4.767-2.962-5.155-5.799 0 0 3.481-1.224 4.124-3.379 0 0 5.806.643 6.318 4.589 0 0-.132 3.689-5.287 4.589z" fill="#0C101C" stroke="#0C101C" stroke-width="1.3" stroke-linecap="round" stroke-linejoin="round"/>
    <path d="M225.125 138.992v0c.246.439.406.92.473 1.419 0 0-.132 3.69-5.287 4.589a3.1 3.1 0 0 1-2.395-.907s.132 5.426 6.162 2.201c6.031-3.224 3.799-6.868 1.047-7.302zM219.273 135.822l-8.333-4.008c-2.062.349-2.411 3.008-2.411 3.008l6.62 4.379s3.481-1.224 4.124-3.379z" fill="#0C101C" stroke="#0C101C" stroke-width="1.3" stroke-linecap="round" stroke-linejoin="round"/>
    <path d="M208.53 134.822s.349-2.659 2.41-3.008l1.365.659v0c.42-.623.42-1.439 0-2.062l-55.162-15.604c-2.403.116-2.573 2.798-2.573 2.798s49.836 18.046 52.068 18.651c2.233.604 3.233-.419 3.233-.419l.054-.07-1.395-.945z" fill="#0C101C" stroke="#0C101C" stroke-width="1.3" stroke-linecap="round" stroke-linejoin="round"/>
    <path d="M157.151 114.791s-27.411-.977-31.705-.775c-4.295.201-5.76 2.403-.45 2.752 5.31.349 29.581.852 29.581.852s.17-2.713 2.574-2.829z" fill="#0C101C" stroke="#0C101C" stroke-width="1.3" stroke-linecap="round" stroke-linejoin="round"/>
    <path d="M179.15 116.473c-9.434.651-84.223 2.651-118.927-3.829l-9.349-2.093c-4.605 8.411-5.651 13.604-2.76 14.085 9.62 1.604 54.131 4.651 114.726 5.155 60.596.504 96.665.519 102.323-7.985.838-1.271 2.155-3.72 3.799-7.015 0 0-8.527-7.287-42.208-7.527-33.682-.24-37.465 8.543-47.604 9.209z" fill="#0C101C" stroke="#0C101C" stroke-width="1.3" stroke-linecap="round" stroke-linejoin="round"/>
    <path clip-rule="evenodd" d="m459.895 235.587 24.108-3.713V248.3l-4.899 13.48-27.318 8.527-7.565-2.613c0-.155.062-.317.085-.48.86-6.535.17-7.752 1.031-25.775a74.748 74.748 0 0 0 2.062-11.519c.519-5.845 4.814-61.696 2.752-90.052-2.062-28.356-7.388-56.882-15.984-86.61-5.597-19.38-11.047-30.914-18.814-37.34h9.364c3.876 0 15.984 7.27 18.302 21.914 2.318 14.643 12.837 77.13 14.728 91.401a303.958 303.958 0 0 1 2.582 39.448c-.031 16.535-.434 66.906-.434 66.906z" stroke="#0C101C" stroke-width="1.3" stroke-linecap="round" stroke-linejoin="round"/>
    <path d="M453.595 165.278c.349-25.255-4.465-49.316-8.248-71.998-3.783-22.682-7.558-54.262-14.093-65.82-3.101-5.512-8.666-8.186-13.635-9.48 6.604 6.728 11.527 17.829 16.558 35.254 8.596 29.728 13.953 58.255 15.984 86.611 2.031 28.356-2.233 84.207-2.752 90.052a74.74 74.74 0 0 1-2.062 11.488c-.861 18.038-.171 19.24-1.031 25.775 0 .162-.054.325-.085.48l7.565 2.613s1.117-22.341 1.117-32.48c0-10.14.341-47.232.682-72.495z" fill="#DEDEDE" stroke="#0C101C" stroke-width="1.3" stroke-linecap="round" stroke-linejoin="round"/>
    <path d="M461.755 244.85s.085-3.349 2.24-3.783c2.155-.434 15.116-2.659 15.116-2.659v9.109l-2.62 7.868-14.728 3.728-.008-14.263z" fill="#0C101C" stroke="#0C101C" stroke-width="1.3" stroke-linecap="round" stroke-linejoin="round"/>
    <path d="M466.825 231.788v-61.781l-6.527-1.349c0 13.473-.255 49.309-.356 62.208l6.883.922z" fill="#DEDEDE" stroke="#0C101C" stroke-width="1.3" stroke-linecap="round" stroke-linejoin="round"/>
    <path clip-rule="evenodd" d="m466.825 231.788 3.612-.689v-61.542l-3.612.45v61.781zM470.437 229.944l165.538-32.24v-12.356a19.369 19.369 0 0 0-3.612-11.473c-5.108-7.131-4.256-14.046.519-18.302l-162.445 18.434v55.937z" stroke="#0C101C" stroke-width="1.3" stroke-linecap="round" stroke-linejoin="round"/>
    <path d="m460.298 168.658 4.294-.473 5.845 1.372-3.612.45-6.527-1.349v0z" fill="#EDE5D3" stroke="#0C101C" stroke-width="1.3" stroke-linecap="round" stroke-linejoin="round"/>
    <path d="M470.438 174.007v-4.45l-5.845-1.372-.922.101c.12-.582.59-1.028 1.178-1.116l160.236-15.977 10.155 1.202v2.884l-2.325.294-162.477 18.434z" fill="#191D28" stroke="#0C101C" stroke-width="1.3" stroke-linecap="round" stroke-linejoin="round"/>
    <path d="m470.437 169.557 164.802-17.162v2.891l-164.802 18.721v-4.45 0zM463.67 168.286c.12-.582.59-1.028 1.178-1.116l114.207-11.388-119.16-3.232c.263 4.976.434 10.364.434 16.108l3.341-.372z" fill="#DEDEDE" stroke="#0C101C" stroke-width="1.3" stroke-linecap="round" stroke-linejoin="round"/>
    <path clip-rule="evenodd" d="m579.055 155.782 46.03-4.589-165.709-6.062c.175 2.326.336 4.768.48 7.326l119.199 3.325z" stroke="#0C101C" stroke-width="1.3" stroke-linecap="round" stroke-linejoin="round"/>
    <path d="M474.476 173.759v7.341a1.48 1.48 0 1 0 2.961 0v-7.341a1.507 1.507 0 0 0-.101-.535l-2.837.318a.93.93 0 0 0-.023.217v0zM506.181 177.046a1.488 1.488 0 0 0 2.969 0v-7.349 0l-2.961.333-.008 7.016zM535.087 173.41a1.434 1.434 0 1 0 2.869 0v-7.023l-2.869.326v6.697zM562.661 169.65a1.38 1.38 0 0 0 2.759 0v-6.364l-2.759.31v6.054zM586.683 166.55a1.264 1.264 0 1 0 2.519 0v-5.954l-2.519.287v5.667zM609.294 158.333v5.333a1.185 1.185 0 1 0 2.325 0v-5.604l-2.325.271zM632.882 155.573c-4.775 4.256-5.628 11.17-.519 18.302a18.488 18.488 0 0 1 1.55 2.558c-.525-7.013-.39-14.059.403-21.046l-1.434.186z" fill="#DEDEDE" stroke="#0C101C" stroke-width="1.3" stroke-linecap="round" stroke-linejoin="round"/>
    <path d="m470.437 221.138 165.538-29.736z" fill="#EDE5D3"/>
    <path d="m470.437 221.138 165.538-29.736" stroke="#0C101C" stroke-width="1.3" stroke-linecap="round" stroke-linejoin="round"/>
    <path d="m470.437 214.091 165.538-27.875z" fill="#EDE5D3"/>
    <path d="m470.437 214.091 165.538-27.875" stroke="#0C101C" stroke-width="1.3" stroke-linecap="round" stroke-linejoin="round"/>
    <path d="m470.437 197.704 54.688-7.721z" fill="#EDE5D3"/>
    <path d="m470.437 197.704 54.688-7.721" stroke="#0C101C" stroke-width="1.3" stroke-linecap="round" stroke-linejoin="round"/>
    <path d="m470.437 187.665 25.953-3.348z" fill="#EDE5D3"/>
    <path d="m470.437 187.665 25.953-3.348" stroke="#0C101C" stroke-width="1.3" stroke-linecap="round" stroke-linejoin="round"/>
    <path d="m459.942 230.866-.039 4.713 24.108-3.706 144.888-28.952 1.829-4.194-160.291 31.216v1.155l-3.612.69-6.883-.922v0z" fill="#DEDEDE" stroke="#0C101C" stroke-width="1.3" stroke-linecap="round" stroke-linejoin="round"/>
    <path d="m516.956 225.292 50.518-10.077c-9.992 10.651-17.473 37.689-18.015 41.084-.543 3.396-3.318 4.21-12.085 3.651-8.767-.558-21.271 3.652-25.131 4.652-3.861.999-6.062-1.155-6.062-1.155s.155-19.992 10.775-38.155z" fill="#0C101C" stroke="#0C101C" stroke-width="1.3" stroke-linecap="round" stroke-linejoin="round"/>
    <path d="M553.203 294.64s1.55 9.542 6.976 15.085" stroke="#0C101C" stroke-width="1.3" stroke-linecap="round" stroke-linejoin="round"/>
    <path d="M480.26 258.641s12.519 2.232 16.131 0c3-1.861 10.178-10.52 15.589-12.457 5.411-1.938 14.31-4 14.442-9.543.131-5.542 0-13.24 0-13.24l-4.729.946v9.465c0 3.217-3.395 5.798-8.527 6.565-5.132.768-9.922 4.132-13.178 7.481-3.256 3.349-5.155 6.697-9.147 6.442-3.992-.256-8.713-.838-8.713-.838l-1.868 5.179z" fill="#1F232D" stroke="#0C101C" stroke-width="1.3" stroke-linecap="round" stroke-linejoin="round"/>
    <path d="M568.637 233.734a10.088 10.088 0 0 0-5.488 1.853c-2.961 1.961-13.659 14.845-13.178 34.054" stroke="#0C101C" stroke-width="1.3" stroke-linecap="round" stroke-linejoin="round"/>
    <path d="M568.638 246.307c-3.163-.108-10.643 9.023-10.767 28.488-.124 19.465 3.48 25.906 7.341 26.418 3.86.512 11.627-10.697 12.247-25.519.62-14.821-1.651-29.123-8.821-29.387z" fill="#484A4F" stroke="#0C101C" stroke-width="1.3" stroke-linecap="round" stroke-linejoin="round"/>
    <path d="M334.759 302.624s8.728-47.759 37.379-50.386M334.759 342.98s6.201 28.518 25.914 30.883" stroke="#0C101C" stroke-width="1.3" stroke-linecap="round" stroke-linejoin="round"/>
    <path d="M347.719 284.973s8.271-24.705 24.418-22.937c16.147 1.767 20.62 22.937 20.62 22.937" stroke="#0C101C" stroke-width="1.3" stroke-linecap="round" stroke-linejoin="round"/>
    <path d="M372.138 273.462c-5.628-.698-23.201 9.449-25.519 38.58-2.318 29.131 5.93 41.503 16.751 43.565 10.822 2.062 23.976-18.046 26.558-38.922 2.581-20.875-6.705-41.851-17.79-43.223z" fill="#484A4F" stroke="#0C101C" stroke-width="1.3" stroke-linecap="round" stroke-linejoin="round"/>
    <path d="M342.976 338.336s2.326 25.263 19.628 28.356" stroke="#0C101C" stroke-width="1.3" stroke-linecap="round" stroke-linejoin="round"/>
    <path d="M140.826 324.244s.519 1.031-4.814 0-6.868-4.124-6.868-4.124c-7.752-1.551-24.752-3.101-24.752-3.101-2.134.27-4.3.126-6.38-.426 0 0 8.101 20.93 23.566 22.767 15.465 1.837 22.806 1.364 32.674-13.884-4.498-.12-8.982-.532-13.426-1.232z" fill="#111521" stroke="#0C101C" stroke-width="1.3" stroke-linecap="round" stroke-linejoin="round"/>
    <path d="m352.845 254.563.62-.845-.62.845zM350.184 258.439c.24-.372.48-.775.728-1.109-.248.334-.488.737-.728 1.109zM351.681 256.191l.628-.899-.628.899zM354.015 252.951c.209-.287.426-.566.643-.853-.186.287-.434.566-.643.853zM344.138 268.795l-.194.372v0l.194-.372zM347.107 263.439l.419-.706-.419.706zM344.751 267.648l.193-.356-.193.356zM409.409 294.64v0c-1.783.441-3.101.736-3.101.736 2.062-18.736 1.713-57.913-25.953-59.293-9.503-.473-18.116 6.302-25.363 15.55 6.976 0 13.325.17 17.115.543 12.628 1.224 23.713 17.053 24.744 45.688a115.8 115.8 0 0 1 0 8.977l.062.046s5.876 1.031 9.853 1.287c3.976.256 2.643-13.534 2.643-13.534zM348.091 261.78l.458-.775-.458.775zM346.231 264.974l.295-.527-.295.527zM349.123 260.098l.496-.775-.496.775zM579.444 212.804l-11.969 2.388c-3.876 4.124-7.349 10.69-10.209 17.403 3.415.103 6.822.38 10.209.829 4.535.589 12.403 9.302 13.589 24.356.338 4.304.432 8.623.279 12.938 2.085.356 5.069.775 6.604.364 2.489-.612 2.403-3.759 2.403-3.759 1.799-41.379-10.906-54.519-10.906-54.519z" fill="#0C101C" stroke="#0C101C" stroke-width="1.3" stroke-linecap="round" stroke-linejoin="round"/>
    <path d="M579.444 212.804s8.419 8.713 10.581 34.279v0l11.705-3.264v-29.728l-16.007-2.542-6.279 1.255z" fill="#1F232D" stroke="#0C101C" stroke-width="1.3" stroke-linecap="round" stroke-linejoin="round"/>
    <path d="m601.73 214.091-18.627 4.504" stroke="#0C101C" stroke-width="1.3" stroke-linecap="round" stroke-linejoin="round"/>
    <path clip-rule="evenodd" d="M627.682 203.161v20.852s-2.922.644-3.566-4.511c-.643-5.155-1.349-15.325-1.349-15.325l4.915-1.016z" stroke="#0C101C" stroke-width="1.3" stroke-linecap="round" stroke-linejoin="round"/>
    <rect x="626.171" y="217.828" width="7.736" height="4.318" rx="2.159" fill="#0C101C" stroke="#0C101C" stroke-width="1.3" stroke-linecap="round" stroke-linejoin="round"/>
    <path d="M18.983 92.032c8.527 1.427 8.116 9.969 5.155 15.232-2.96 5.264-8.527 12.403-17.658 8.527-9.132-3.876-5.023-13.689-.775-18.077 4.248-4.387 7.868-6.589 13.278-5.682zM369.432 277.384l-2.837 2.31.519 20.876 6.574-8.116-5.396-11.605 1.14-3.465v0zM356.795 289.709l-2.465 3.776 6.341 12.402 2.442-4.651s-3.481-6.054-6.202-8.372l-.116-3.155zM349.618 313.422l9.109-.232v10.844l-9.605-1.55.496-9.062v0zM361.439 328.538l-7.519 14.442 8.682-7.605-1.163-6.837v0zM368.293 326.995l4.621 8.116-5.543 11.085.922 3.225h-2.472l2.472-22.426v0zM373.688 321.321l5.411 3.868.511 5.674-1.93 1.876-2.449-4.201 1.418-1.543-2.961-1.418v-4.256 0zM373.688 313.189l8.643-9.782-1.038 10.186 1.93 1.674-2.582 2.449-6.953-4.527v0zM373.688 302.593l6.698-13.612-.776 9.914-5.922 3.698v0zM567.474 250.695l-2 3.519.597 9.364 3.008-4.984-2.488-4.124.883-3.775v0zM561.607 259.633l-.776 5.666 1.721 2.752 3.775.768-4.72-9.186v0zM563.583 273.074l-4.271 7.008v1.798l3.496-.682-.426-3.721 1.201-4.403v0zM564.442 283.516l.597 5.93-3.008 2.752 1.504-3.868.907-4.814v0zM567.273 283.516l3.441 4.341-3.441 5.279.201-4.806-.201-4.814v0zM571.227 276.555l-1.628 2.062 1.628 3.783 3.178 1.116-3.178-6.961v0zM569.599 271.237l3.605-4.566v4.039l.69 2.364-4.295-1.837v0zM569.599 264.229l2.147-2.798.256-3.605 1.202 4.295-3.605 2.108v0z" fill="#0C101C" stroke="#0C101C" stroke-width="1.3" stroke-linecap="round" stroke-linejoin="round"/>
    <path d="m455.531 170.782 4.767-.775s4.21 3.612 1.458 9.922l-6.202 1.295-.023-10.442z" fill="#fff" stroke="#0C101C" stroke-width="1.3" stroke-linecap="round" stroke-linejoin="round"/>
    <path d="M460.423 174.231s4.302 12.853 0 24.984c0 0-.869 2.985-2.644 2.078-1.775-.907-1.55-2.062-.876-3.101.675-1.039 4.458-10.441.876-23.069a1.682 1.682 0 0 1 2.644-.892v0z" fill="#1F232D" stroke="#0C101C" stroke-width="1.3" stroke-linecap="round" stroke-linejoin="round"/>
    <path d="M455.531 170.782s6.806 5.566 0 10.442v-10.442z" fill="#DEDEDE" stroke="#0C101C" stroke-width="1.3" stroke-linecap="round" stroke-linejoin="round"/>
    <path d="M6.371 243.974a30.746 30.746 0 0 0 .24 10.853M126.127 265.586l15.984 1.473M41.664 256.098l68.316 8.387M114.872 264.981s2.922-.139 2.922 2.078v14.054" stroke="#0C101C" stroke-width="1.3" stroke-linecap="round" stroke-linejoin="round"/>
    <path d="M407.54 64.831c-2.899-15.108-9.341-36.022-14.79-46.177-12.922-1.55-30.875-3.054-42.782-2.713-18.046.519-24.031 10.658-28.527 20.278-2.511 5.426-11.116 27.728-19.17 50.387v0s6.613-4.9 8.426-9.923c1.814-5.023 18.078-48.836 27.907-52.34 12.03-4.302 31.619-2.007 50.526-.294 0 0 11.86 28.356 15.123 76.649 0 0-28.681 1.551-41.247 2.923-12.565 1.372-28.945 11.852-36.038 19.759l-.635 5.566c10.341-9.512 25.425-20.519 41.138-21.651 27.325-1.961 32.31-2.643 42.798-2.643h2.821c-.666-6.744-2.674-24.798-5.55-39.821z" fill="#0C101C" stroke="#0C101C" stroke-width="1.3" stroke-linecap="round" stroke-linejoin="round"/>
    <path d="M308.736 112.869s-3.271-2.062-5.333 0c-2.062 2.062-5.325 19.588-2.922 23.03s8.589 1.713 10.224 0c1.636-1.713 33.085-6.015 38.588-7.225 5.504-1.209 4.807-5.154 4.977-9.619.171-4.465.861-41.76-7.899-42.108-8.759-.349-24.232-1.372-26.984 4.302a133.67 133.67 0 0 0-10.651 31.62v0z" fill="#fff" stroke="#0C101C" stroke-width="1.3" stroke-linecap="round" stroke-linejoin="round"/>
    <path d="M303.395 112.869c-2.062 2.062-5.325 19.588-2.922 23.022 2.403 3.435 8.589 1.721 10.224 0 .775-.775 7.651-2.092 15.504-3.403v0a30.276 30.276 0 0 1-2.667-2.511c-1.55-1.62-14.775-.775-14.775-.775-.349-6.202 0-16.325 0-16.325s-3.302-2.07-5.364-.008zM414.509 104.567c7.194-.202 9.814-1.186 11.418-5.28a112.288 112.288 0 0 1 4.985-10.852c1.721-3.441 1.891-6.201 1.201-9.968-.69-3.768-10.511-39.325-12.527-45.34-2.015-6.016-5.139-10.853-12.356-12.403-2.457-.527-7.752-1.31-14.449-2.101a69.539 69.539 0 0 1 2.155 4.45v0c3.958.345 7.891.938 11.775 1.775 4.984 1.201 7.511 4.465 9 8.938 1.488 4.472 9.216 29.216 10.937 36.603 1.721 7.388 4.124 10.651 2.062 14.605a112.894 112.894 0 0 0-5.155 11.17c-.86 2.41-1.55 4.814-10.41 4.651h-.403c.162 1.48.302 2.752.403 3.759l1.364-.007zM369.37 310.151s4.791 5.612 0 9.566c0 0 2.721-4.008 0-9.566zM568.993 268.826a6.978 6.978 0 0 1-.356 6.977 18.65 18.65 0 0 0 .356-6.977v0z" fill="#0C101C" stroke="#0C101C" stroke-width="1.3" stroke-linecap="round" stroke-linejoin="round"/>
    <path d="m190.057 289.903 34.014-.604M179.88 297.64l21.526-.946M210.128 296.345l13.123-.55M12.627 264.229l7.256 5.155M6.79 266.323l8.76 5.705" stroke="#0C101C" stroke-width="1.3" stroke-linecap="round" stroke-linejoin="round"/>
    <path d="M65.935 265.787c.698.078 1.395.109 2.1.14l.939.062h.232l.605.093c.304.071.623.03.899-.116.26-.157.45-.407.535-.698a1.186 1.186 0 0 0-.775-1.403c-1.504-.271-3.023-.24-4.535-.411a1.133 1.133 0 0 0-.822.341 1.164 1.164 0 0 0 0 1.644c.229.201.518.321.822.341v.007z" fill="#0C101C"/>
    <path d="m64.772 264.64-.085 6.302a1.985 1.985 0 0 0 .45 1.636c.53.345 1.159.508 1.79.465l3.148.318a1.17 1.17 0 0 0 1.162-1.163 1.195 1.195 0 0 0-1.162-1.163l-2.055-.193-1.023-.101-.442-.047h-.287c.101 0 .109 0 0 0l.512.295c.17.589.248.713.233.38v-3.186l.046-3.488a1.162 1.162 0 1 0-2.325 0l.038-.055z" fill="#0C101C"/>
    <path d="M65.85 269.377c1.434-.047 2.868.186 4.31.155a1.163 1.163 0 0 0 0-2.326c-1.442 0-2.876-.201-4.31-.155a1.163 1.163 0 0 0 0 2.326zM76.33 273.167c.123-1.038.31-2.178.534-3.279.225-1.1.52-2.263.845-3.379l-1.946.511c.477.446.88.964 1.194 1.535.365.607.696 1.233.993 1.876a30.01 30.01 0 0 0 1.937 3.829 1.17 1.17 0 0 0 1.31.535 1.798 1.798 0 0 0 1.233-1.604c.108-.698.202-1.396.302-2.101l.582-4.132a1.194 1.194 0 0 0-.775-1.426 1.17 1.17 0 0 0-1.434.775l-.504 3.558-.248 1.737-.124.868c0 .124-.04.24-.055.356a.962.962 0 0 1 0 .14.666.666 0 0 1 .48-.442l1.31.535c-1.627-2.504-2.325-5.558-4.487-7.682a1.176 1.176 0 0 0-1.946.512 45.493 45.493 0 0 0-1.527 7.278 1.17 1.17 0 0 0 1.163 1.163 1.201 1.201 0 0 0 1.162-1.163zM85.827 267.478a91.621 91.621 0 0 0-.396 5.426 4.573 4.573 0 0 0 0 1.341c.186.575.676 1 1.272 1.101a13.1 13.1 0 0 0 2.682.442 4.108 4.108 0 0 0 2.488-.559 4 4 0 0 0 1.457-1.821 7.08 7.08 0 0 0 .48-2.147 4.094 4.094 0 0 0-.495-2.551 4.983 4.983 0 0 0-2.28-1.744 10.572 10.572 0 0 0-3.1-.845c-.642 0-1.163.521-1.163 1.163.02.634.53 1.142 1.163 1.163l.333.054.442.101c.292.074.58.164.86.271a5.6 5.6 0 0 1 1.458.775c-.14-.108.124.116.132.124.056.053.107.11.155.171-.062-.078-.054-.062 0 .054.147.279 0-.147.07.155 0 .078 0 .155.054.233v.046c.02.281.02.564 0 .845v.504c-.054.232-.124.465-.194.69-.07.225-.046.132 0 0a1.08 1.08 0 0 1-.062.139c-.054.101-.108.202-.17.303l-.117.162c.085-.108.085-.108 0 0-.085.109-.14.132-.209.194.194-.163-.124.07-.178.093.14-.07-.17.054-.179.062l-.24.047h-.434a8.579 8.579 0 0 1-.892-.07h-.093l-.27-.047-.396-.077-.535-.124-.256-.062c-.194-.07-.124 0 .21.124l.302.512v.1-1.395l.093-1.651c.077-1.101.17-2.202.279-3.295 0-.642-.52-1.162-1.163-1.162a1.193 1.193 0 0 0-1.163 1.162l.055-.007zM95.98 268.082a16.726 16.726 0 0 0-.225 2.853 2.811 2.811 0 0 0 .388 1.457c.31.471.782.812 1.326.961a5.071 5.071 0 0 0 2.658-.085 3.736 3.736 0 0 0 2.435-1.55 4.652 4.652 0 0 0 .333-3.357 1.163 1.163 0 0 0-2.24.612c0 .117.054.225.077.342.023.116 0 .116 0-.055.004.06.004.119 0 .179.008.085.008.17 0 .255v.124a2.215 2.215 0 0 1-.139.59 1.153 1.153 0 0 1-.062.17c.067-.16.067-.183 0-.07l-.07.132c-.07.109-.054.085 0-.046l-.078.077c-.069.054 0 .039.086-.062a1.492 1.492 0 0 1-.272.155l-.147.07h.039a1.743 1.743 0 0 1-.24.093c-.218.077-.441.139-.667.186l-.256.054h.046-.17a4.212 4.212 0 0 1-.55 0h-.148.109a2.528 2.528 0 0 0-.271-.07s.27.117 0 0c-.11-.069-.078-.046.07.062l-.094-.093c.109.148.124.163.054.055.063.17.078.194 0 .069a1.174 1.174 0 0 0-.046-.217v.078-1.155c0-.217 0-.442.046-.659.047-.217 0-.248.04-.38.038-.132 0-.124 0 0v-.186a1.27 1.27 0 0 0-.117-.891 1.151 1.151 0 0 0-.698-.535 1.163 1.163 0 0 0-1.426.775l.21.062z" fill="#0C101C"/>
    <path d="M98.138 272.563v.077l.046-.31a98.81 98.81 0 0 1-.643 4.093c-.076.304-.034.625.116.899a1.163 1.163 0 0 0 2.124-.279c.264-1.488.496-2.982.698-4.48a1.198 1.198 0 0 0-.341-.822 1.179 1.179 0 0 0-.822-.341c-.31.001-.608.124-.83.341-.2.229-.316.518-.333.822h-.015zM62.478 265.291c-.07-2.015-2.07-2.891-3.837-2.945a3.03 3.03 0 0 0-2.264.775 3.45 3.45 0 0 0-.844 2.442 2.667 2.667 0 0 0 1.17 2.372c.75.383 1.577.59 2.419.604.24.024.47.104.674.233-.21-.155.186.248 0 0 .034.062.073.122.116.178.14.202 0-.116.055.116 0 .093.054.442.054.217v.217c0-.193 0-.054 0 0 0 .055 0 .14-.062.202.07-.194 0 0 0 .039-.109.17-.078.124 0 .077a2.257 2.257 0 0 1-.272.279 2.176 2.176 0 0 1-.775.458c-.39.115-.796.16-1.201.132-.248 0-.496 0-.775-.047 0 0-.334-.039-.186 0 .147.039-.163 0 0 0-.07 0-.148-.085-.047 0a2.009 2.009 0 0 1-.271-.248s-.14-.171-.047-.047a1.555 1.555 0 0 1-.17-.286 1.162 1.162 0 1 0-2.008 1.17 3.372 3.372 0 0 0 1.783 1.62c.393.101.796.156 1.201.163a7.43 7.43 0 0 0 1.248 0c1.628-.178 3.473-1.24 3.807-2.977a3.201 3.201 0 0 0-2.326-3.705 8.242 8.242 0 0 0-1.318-.178h-.271l-.233-.062c-.054 0-.24-.101-.1 0a.997.997 0 0 1-.202-.117c.155.124 0 0 0-.038 0-.039.062.093.062.085 0-.008-.062-.202-.039-.07a2.056 2.056 0 0 1 0-.535 2.442 2.442 0 0 1 0-.248c0 .179.047-.186.047-.186s.062-.186 0-.093.085-.178 0 0c.054-.108.077-.116 0 0 .108-.062.132-.077.054-.046h.078a2.15 2.15 0 0 1 .86 0h.054l.396.093c.12.022.238.061.349.116.08.041.158.087.232.14-.147-.117.14.155 0 0 .049.065.09.135.124.209-.062-.155 0 .217 0 0a1.163 1.163 0 0 0 2.326 0l.14-.109z" fill="#0C101C"/>
    <path d="M234.893 217.827h24.992M230.236 224.509h18.689M196.848 221.68h19.844M20.797 202.347s5.186.775 8.906 1.225M20.014 205.828l-8.248-1.031M17.38 196.611l6.24.643" stroke="#0C101C" stroke-width="1.3" stroke-linecap="round" stroke-linejoin="round"/>
    <path d="M563.175 52.205a29.67 29.67 0 0 1-35.058 4.198l-11.225 7.072 5.786-11.039a29.62 29.62 0 0 1-1.434-1.414c-11.243-11.916-10.698-30.69 1.218-41.933 11.915-11.243 30.688-10.7 41.932 1.215 11.244 11.915 10.702 30.688-1.212 41.933l-.007-.032z" fill="#fff" stroke="#0C101C" stroke-width="1.3" stroke-linecap="round" stroke-linejoin="round"/>
    <path fill-rule="evenodd" clip-rule="evenodd" d="m541.027 21.827.116 3.215.488 8.538h2.218l.489-8.538.116-3.215h-3.427zm1.795 13.663a2.122 2.122 0 0 0-2.187 2.024 2.124 2.124 0 0 0 2.109 2.218 2.122 2.122 0 0 0 .078-4.242z" fill="#000"/>
    <path opacity=".06" d="M480.864 375.495c-5.779-1.145-18.536-10.918-44.19-4.209-25.655 6.708-12.966 35.077 12.494 34.774 25.459-.303 23.937-6.567 39.178-4.479 15.242 2.088 35.253 13.14 52.872-1.792s-1.643-30.423-23.89-25.978c-19.667 3.927-25.924 3.772-36.464 1.684z" fill="#070E1F"/>
    <path d="M522.622 391.895c1.933-2.512 1.657-13.76-.99-19.532-2.647-5.772-2.317-5.206-5.105-25.857-2.789-20.65-12.507-3.448-12.507-3.448s3.131 14.184 3.367 20.879c.236 6.695-2.566 16.165-2.02 22.422.545 6.257 1.555 7.947 3.771 8.554 3.206.875 10.258 1.165 13.484-3.018z" fill="#fff" stroke="#070E1F" stroke-width="1.3" stroke-linecap="round" stroke-linejoin="round"/>
    <path d="M514.526 383.557c10.298-.936 6.607-12.271 6.607-12.271v0c.155.336.324.673.499 1.091 2.647 5.758 2.923 17.006.99 19.532-3.226 4.183-10.278 3.893-13.471 3.011-2.216-.607-3.199-2.284-3.771-8.554-.263-2.903.363-6.5.754-10.184.013.041-.889 8.204 8.392 7.375z" fill="#1F64F3" stroke="#070E1F" stroke-width="1.3" stroke-linecap="round" stroke-linejoin="round"/>
    <path d="M506 390.73c.62 1.805 3.604 2.62 8.756 2.304a15.996 15.996 0 0 0 8.756-3.509 5.994 5.994 0 0 1-.876 2.37c-3.226 4.183-10.278 3.893-13.47 3.011-1.596-.417-2.539-1.408-3.166-4.176z" fill="#0043A7" stroke="#070E1F" stroke-width="1.3" stroke-linecap="round" stroke-linejoin="round"/>
    <path d="M447.646 392.468c-2.088-2.391-2.492-13.639-.202-19.533 2.29-5.893 2.02-5.341 3.515-26.119 1.496-20.778 12.279-4.203 12.279-4.203s-2.263 14.306-2.068 20.981c.195 6.674 3.543 16.009 3.368 22.3-.176 6.291-1.071 8.028-3.24 8.756-3.159 1.064-10.184 1.785-13.652-2.182z" fill="#fff" stroke="#070E1F" stroke-width="1.3" stroke-linecap="round" stroke-linejoin="round"/>
    <path d="M450.549 190.68s-5.018 12.898-6.513 33.953c-1.496 21.054-3.9 124.601-3.9 124.601s16.919 7.167 38.68 0l.048-127.457 7.954 127.437s21.438 7.611 40.115 0c0 0-11.14-109.212-13.363-127.491-3.138-25.83-8.197-33.946-8.197-33.946s-50.649-1.044-54.824 2.903z" fill="#1F64F3" stroke="#070E1F" stroke-width="1.3" stroke-linecap="round" stroke-linejoin="round"/>
    <path d="m477.313 213.142-1.004-15.228M480.595 196.944c.39 3.698.996 13.363-3.469 13.363M498.987 194.54s1.051 8.755 11.774 10.022M446.291 206.953s7.665.39 11.039-12.016" stroke="#070E1F" stroke-width="1.3" stroke-linecap="round" stroke-linejoin="round"/>
    <path d="M449.793 192.856s10.467 4.122 28.16 4.122c17.694 0 29.285-4.991 29.285-4.991a.979.979 0 0 0 .539-.754c.074-.559-1.758-4.25-1.758-4.25s-11.901 5.388-28.255 4.997c-16.353-.39-26.725-3.415-26.725-3.415l-1.536 1.657s-.929 2.209.29 2.634z" fill="#fff" stroke="#070E1F" stroke-width="1.3" stroke-linecap="round" stroke-linejoin="round"/>
    <path d="M479.248 191.569s-4.654-1.448-4.964 2.694c-.337 4.567 4.964 3.368 4.964 3.368" stroke="#070E1F" stroke-width="1.3" stroke-linecap="round" stroke-linejoin="round"/>
    <path d="M487.524 197.914a36.937 36.937 0 0 0-.949-7.261l2.411-.424s1.286 4.641 1.118 7.685" fill="#1F64F3"/>
    <path d="M487.524 197.914a36.937 36.937 0 0 0-.949-7.261l2.411-.424s1.286 4.641 1.118 7.685" stroke="#070E1F" stroke-width="1.3" stroke-linecap="round" stroke-linejoin="round"/>
    <path d="M463.041 197.375s.249-4.425 2.095-7.732l-2.802-.505s-1.677 4.479-1.792 7.564" fill="#1F64F3"/>
    <path d="M463.041 197.375s.249-4.425 2.095-7.732l-2.802-.505s-1.677 4.479-1.792 7.564M497.661 216.355s6.271 60.92 8.291 86.885M459.808 216.355s-3.502 90.421-4.809 135.904M507.292 320.502l2.54 32.093" stroke="#070E1F" stroke-width="1.3" stroke-linecap="round" stroke-linejoin="round"/>
    <path d="M478.822 333.009c.497.182.813.671.775 1.199v15.006s-14.858 8.284-40.095.519v-15.451s.162-1.273 1.051-1.273c0 0 17.336 4.627 38.269 0z" fill="#5B8AF4" stroke="#070E1F" stroke-width="1.3" stroke-linecap="round" stroke-linejoin="round"/>
    <path d="m454.584 334.936-.66 17.781" stroke="#070E1F" stroke-width="1.3" stroke-linecap="round" stroke-linejoin="round"/>
    <path d="M485.822 333.986s19.296 4.984 39.347-1.091l-.202-1.893a2.844 2.844 0 0 1 1.138 1.785c.155 1.118 1.947 16.428 1.947 16.428s-14.427 9.106-42.23.518l-.923-14.71s-.067-1.259.923-1.037z" fill="#5B8AF4" stroke="#070E1F" stroke-width="1.3" stroke-linecap="round" stroke-linejoin="round"/>
    <path d="m509.003 335.744 1.866 17.619" stroke="#070E1F" stroke-width="1.3" stroke-linecap="round" stroke-linejoin="round"/>
    <path d="M455.216 383.638c-10.339-.31-7.341-11.854-7.341-11.854v0l-.431 1.152c-2.29 5.906-1.886 17.154.202 19.532 3.468 3.98 10.493 3.26 13.638 2.182 2.169-.741 3.045-2.479 3.24-8.756.088-2.909-.828-6.903-1.441-10.554 0 .027 1.448 8.567-7.867 8.298z" fill="#1F64F3" stroke="#070E1F" stroke-width="1.3" stroke-linecap="round" stroke-linejoin="round"/>
    <path d="M464.167 390.279c-.512 1.839-3.442 2.829-8.574 2.829a16.037 16.037 0 0 1-8.971-2.971 5.94 5.94 0 0 0 1.024 2.331c3.468 3.98 10.493 3.26 13.639 2.182 1.535-.539 2.431-1.576 2.882-4.371z" fill="#0043A7" stroke="#070E1F" stroke-width="1.3" stroke-linecap="round" stroke-linejoin="round"/>
    <path d="m472.794 194.149 5.16.391" stroke="#070E1F" stroke-width="1.3" stroke-linecap="round" stroke-linejoin="round"/>
    <path d="m489.634 89.894-22.631-2.256s-16.373 4.613-19.451-9.517c-3.078-14.13 6.735-43.388 24.415-42.432 0 0 6.601-5.61 17.68.97 9.342 5.556 14.817 19.7 17.471 33.743 2.654 14.043-2.539 22.974-17.484 19.492z" fill="#070E1F" stroke="#070E1F" stroke-width="1.3" stroke-linecap="round" stroke-linejoin="round"/>
    <path d="M457.189 67.567s-6.27 2.283-5.395 7.786c.876 5.503 7.88 4.486 7.88 4.486l-2.485-12.272z" fill="#fff" stroke="#070E1F" stroke-width="1.3" stroke-linecap="round" stroke-linejoin="round"/>
    <path d="M456.166 70.78s-2.358 1.293-2.331 3.367a3.476 3.476 0 0 0 1.428 2.856" fill="#fff"/>
    <path d="M456.166 70.78s-2.358 1.293-2.331 3.367a3.476 3.476 0 0 0 1.428 2.856" stroke="#070E1F" stroke-width="1.3" stroke-linecap="round" stroke-linejoin="round"/>
    <path opacity=".06" d="M456.166 70.78s-2.358 1.293-2.331 3.367a3.476 3.476 0 0 0 1.428 2.856s-1.212-3.51.903-6.224z" fill="#070E1F" stroke="#070E1F" stroke-width="1.3" stroke-linecap="round" stroke-linejoin="round"/>
    <path d="M495.99 67.567s6.304 2.27 5.388 7.786c-.916 5.516-7.894 4.486-7.894 4.486l2.506-12.272z" fill="#fff" stroke="#070E1F" stroke-width="1.3" stroke-linecap="round" stroke-linejoin="round"/>
    <path d="M497.016 70.78s2.357 1.293 2.33 3.367a3.63 3.63 0 0 1-.384 1.63" fill="#fff"/>
    <path d="M497.016 70.78s2.357 1.293 2.33 3.367a3.63 3.63 0 0 1-.384 1.63" stroke="#070E1F" stroke-width="1.3" stroke-linecap="round" stroke-linejoin="round"/>
    <path d="M456.529 71.642c2.074 12.972 7.085 22.677 20.502 22.751 14.716.088 19.229-8.58 20.657-23.85 1.535-16.4-3.408-30.59-19.883-30.59-16.683 0-24.705 10.298-21.276 31.689z" fill="#fff" stroke="#070E1F" stroke-width="1.3" stroke-linecap="round" stroke-linejoin="round"/>
    <path d="M463.715 63.822s3.368-2.735 7.699.552M477.45 69.87l.707 3.866" stroke="#070E1F" stroke-width="1.3" stroke-linecap="round" stroke-linejoin="round"/>
    <path d="M467.553 66.826s-1.347 0-1.347 1.946c0 1.947 1.347 1.947 1.347 1.947s1.347 0 1.347-1.947c0-1.946-1.347-1.946-1.347-1.946z" fill="#070E1F"/>
    <rect opacity=".12" x="460.84" y="78.545" width="4.452" height="2.559" rx="1.28" fill="#FF8B60"/>
    <rect opacity=".12" x="489.634" y="78.545" width="4.452" height="2.559" rx="1.28" fill="#FF8B60"/>
    <path d="M455.693 56.508c3.367-15.1 16.259-16.556 16.259-16.556 17.747-10.634 26.617 12.333 29.298 23.998 2.681 11.666-9.429 11.376-9.429 11.376 2.209-5.314 1.596-17.922-4.506-27.433-6.102-9.51-15.397-5.603-15.397-5.603a36.432 36.432 0 0 1-16.225 25.277v-11.06z" fill="#070E1F" stroke="#070E1F" stroke-width="1.3" stroke-linecap="round" stroke-linejoin="round"/>
    <path opacity=".06" d="m497.351 73.5-.485 2.991s3.826-.795 5.011-3.489c1.186-2.694-1.919-3.866-1.919-3.866l-2.607 4.365z" fill="#070E1F" stroke="#070E1F" stroke-width="1.3" stroke-linecap="round" stroke-linejoin="round"/>
    <path d="M464.255 45.9s-1.805 3.616-2.976 5.906M459.823 47.32l-2.822 5.308M495.507 54.002a14.215 14.215 0 0 1 1.508 6.486M497.883 85.813s5.927-.297 6.385-6.87" stroke="#fff" stroke-width="1.3" stroke-linecap="round" stroke-linejoin="round"/>
    <path d="M490.779 63.822s-3.368-2.735-7.699.552" stroke="#070E1F" stroke-width="1.3" stroke-linecap="round" stroke-linejoin="round"/>
    <path d="M486.931 66.826s1.347 0 1.347 1.946c0 1.947-1.347 1.947-1.347 1.947s-1.347 0-1.347-1.947c0-1.946 1.347-1.946 1.347-1.946z" fill="#070E1F"/>
    <path d="m504.8 172.084 14.616-2.471s-4.129-41.415-5.025-51.72c-.895-10.305-21.317-8.433-39.226-15.182 0 0-20.785 6.022-26.604 7.133-5.819 1.111-9.429 6.479-9.874 12.541-.444 6.062-2.02 43.685-2.02 43.685l14.144 6.735-.674 12.123 55.398-.841-.735-12.003z" fill="#fff" stroke="#070E1F" stroke-width="1.3" stroke-linecap="round" stroke-linejoin="round"/>
    <path d="M521.328 166.198a35.623 35.623 0 0 1-1.111 11.894s-.249 7.274-4.338 7.752c-4.088.479-8.23-.565-11.348-9.53-3.119-8.964 9.314-22.098 9.314-22.098l4.924-3.691 2.02 9.86.539 5.813zM431.884 167.807s.774 5.301 2.627 8.285c1.852 2.983 2.155 9.348 6.782 11.019 4.627 1.67 7.799-3.941 9.194-8.601 1.394-4.661-6.803-17.061-6.803-17.061l-11.295-2.101-.505 8.459z" fill="#151928" stroke="#070E1F" stroke-width="1.3" stroke-linecap="round" stroke-linejoin="round"/>
    <path d="M521.328 166.198s-3.583-37.428-5.591-48.306c-1.084-5.866-8.479-7.772-17.983-9.631-.922 6.897-9.981 12.312-21.02 12.312s-20.206-5.489-21.041-12.453c-2.991.788-5.604 1.427-7.153 1.724-5.826 1.091-11.504 6.52-12.548 12.541-2.02 11.504-4.108 45.449-4.108 45.449s3.947-10.231 9.113-9.187c5.166 1.044 8.217-.067 8.217-.067s-.304 24.186-.674 26.941c-.37 2.755.175 5.045 8.864 5.388 8.816.35 15.39.896 26.772 1.569 10.541.62 18.536-3.839 21.843-5.462 3.307-1.623-1.145-31.655-1.145-31.655s14.211 3.933 16.454 10.837z" fill="#333958" stroke="#070E1F" stroke-width="1.3" stroke-linecap="round" stroke-linejoin="round"/>
    <path d="M455.162 112.956s5.389 9.826 22.153 9.51c14.857-.283 21.269-7.187 22.502-13.808" stroke="#070E1F" stroke-width="1.3" stroke-linecap="round" stroke-linejoin="round"/>
    <path d="M452.099 154.169c-.903-24.853.572-38.876.572-38.876l-6.331-7.099s-7.624 14.44-10.615 43.974c-1.01 9.928-2.492 29.73 8.945 30.787 11.436 1.057 7.84-17.586 7.429-28.786z" fill="#fff" stroke="#070E1F" stroke-width="1.3" stroke-linecap="round" stroke-linejoin="round"/>
    <path d="M452.064 118.863c2.883-.943 5.537-3.786 7.773-5.746 2.977-2.606 7.247-6.223 6.856-8.122-.848-4.102-6.735 1.414-6.735 1.414s-5.22-6.216 1.118-6.216 8.635-.943 8.635-2.694c0-2.762-6.52-2.412-12.487-1.543-5.968.869-13.397 11.679-12.427 18.017" fill="#fff"/>
    <path d="M452.064 118.863c2.883-.943 5.537-3.786 7.773-5.746 2.977-2.606 7.247-6.223 6.856-8.122-.848-4.102-6.735 1.414-6.735 1.414s-5.22-6.216 1.118-6.216 8.635-.943 8.635-2.694c0-2.762-6.52-2.412-12.487-1.543-5.968.869-13.397 11.679-12.427 18.017" stroke="#070E1F" stroke-width="1.3" stroke-linecap="round" stroke-linejoin="round"/>
    <path d="M450.575 105.601a2.02 2.02 0 0 1 .438 2.296c-.626 1.347-.808 2.924.674 3.483 1.481.559 2.485-.499 3.044-1.347 0 0 3.105 1.582 4.714-1.442 0 0 3.045 1.071 3.483-2.35.437-3.422-.62-6.062-2.176-7.766" fill="#fff"/>
    <path d="M450.575 105.601a2.02 2.02 0 0 1 .438 2.296c-.626 1.347-.808 2.924.674 3.483 1.481.559 2.485-.499 3.044-1.347 0 0 3.105 1.582 4.714-1.442 0 0 3.045 1.071 3.483-2.35.437-3.422-.62-6.062-2.176-7.766" stroke="#070E1F" stroke-width="1.3" stroke-linecap="round" stroke-linejoin="round"/>
    <path d="M454.737 110.012c2.694-3.792-1.057-7.206-1.057-7.206z" fill="#fff"/>
    <path d="M454.737 110.012c2.694-3.792-1.057-7.206-1.057-7.206" stroke="#070E1F" stroke-width="1.3" stroke-linecap="round" stroke-linejoin="round"/>
    <path d="M457.653 100.071s3.294 3.758 1.798 8.5z" fill="#fff"/>
    <path d="M457.653 100.071s3.294 3.758 1.798 8.5" stroke="#070E1F" stroke-width="1.3" stroke-linecap="round" stroke-linejoin="round"/>
    <path d="M489.673 99.344s5.166 1.812 5.246 11.133c.081 8.904-7.954-4.715-7.954-4.715l2.708-6.418z" fill="#fff" stroke="#070E1F" stroke-width="1.3" stroke-linecap="round" stroke-linejoin="round"/>
    <rect x="466.693" y="73.905" width="22.9" height="39.064" rx="5.54" fill="#1F64F3" stroke="#070E1F" stroke-width="1.3" stroke-linecap="round" stroke-linejoin="round"/>
    <rect x="470.06" y="77.946" width="7.409" height="7.409" rx="1.13" fill="#fff" stroke="#070E1F" stroke-width="1.3" stroke-linecap="round" stroke-linejoin="round"/>
    <circle cx="472.417" cy="80.303" r="1.01" fill="#070E1F"/>
    <circle cx="475.111" cy="80.303" r="1.01" fill="#070E1F"/>
    <circle cx="475.111" cy="82.997" r="1.01" fill="#070E1F" stroke="#fff" stroke-width="1.3" stroke-linecap="round" stroke-linejoin="round"/>
    <circle cx="472.417" cy="82.997" r="1.01" fill="#070E1F"/>
    <path d="M486.144 120.883s10.574 30.376 13.659 42.85c3.085 12.473 6.648 21.088 14.218 18.09 8.136-3.219 4.715-15.356.054-27.008-4.23-10.581-20.118-39.522-20.118-39.522l-7.813 5.59z" fill="#fff" stroke="#070E1F" stroke-width="1.3" stroke-linecap="round" stroke-linejoin="round"/>
    <path d="M494.927 117.832c3.226-3.61 1.138-6.641.134-8.608 0 0-3.266-4.479-6.681-9.079-3.415-4.6-5.132-5.536-6.183-4.816 0 0-1.435-2.31-3.031-1.407a2.02 2.02 0 0 0-1.158 2.283 2.843 2.843 0 0 0-1.496 3.186s-1.542.148-1.387 3.32c.141 2.775 3.671 19.108 11.234 19.633" fill="#fff"/>
    <path d="M494.927 117.832c3.226-3.61 1.138-6.641.134-8.608 0 0-3.266-4.479-6.681-9.079-3.415-4.6-5.132-5.536-6.183-4.816 0 0-1.435-2.31-3.031-1.407a2.02 2.02 0 0 0-1.158 2.283 2.843 2.843 0 0 0-1.496 3.186s-1.542.148-1.387 3.32c.141 2.775 3.671 19.108 11.234 19.633" stroke="#070E1F" stroke-width="1.3" stroke-linecap="round" stroke-linejoin="round"/>
    <path d="M482.197 95.33s5.025 7.098 8.17 12.668z" fill="#fff"/>
    <path d="M482.197 95.33s5.025 7.098 8.17 12.668" stroke="#070E1F" stroke-width="1.3" stroke-linecap="round" stroke-linejoin="round"/>
    <path d="m478.008 96.205 8.372 14.858z" fill="#fff"/>
    <path d="m478.008 96.205 8.372 14.858" stroke="#070E1F" stroke-width="1.3" stroke-linecap="round" stroke-linejoin="round"/>
    <path d="M476.513 99.39s4.714 11.289 6.136 13.767z" fill="#fff"/>
    <path d="M476.513 99.39s4.714 11.289 6.136 13.767M459.358 114.74s9.073 1.583 11.356 1.933c2.283.351 3.051 1.348 3.051 1.348M478.816 118.021l1.024-.869" stroke="#070E1F" stroke-width="1.3" stroke-linecap="round" stroke-linejoin="round"/>
    <ellipse opacity=".12" cx="512.419" cy="177.17" rx="3.637" ry="2.182" transform="rotate(-23.63 512.419 177.17)" fill="#FF8B60"/>
    <ellipse opacity=".12" cx="445.719" cy="178.511" rx="2.182" ry="3.637" transform="rotate(-85.09 445.719 178.511)" fill="#FF8B60"/>
    <path d="M477.766 192.054s-10.945-1.407-15.397-4.405" stroke="#070E1F" stroke-width="1.3" stroke-linecap="round" stroke-linejoin="round"/>
</svg>
