<svg width="72" height="24" viewBox="0 0 72 24" fill="none" xmlns="http://www.w3.org/2000/svg">
    <path fill-rule="evenodd" clip-rule="evenodd" d="M69.49 14.884a2.199 2.199 0 1 0-.001 4.397 2.199 2.199 0 0 0 0-4.397z" fill="#006EF4"/>
    <path fill-rule="evenodd" clip-rule="evenodd" d="M12.08 7.731S9.525 6.462 7.07 6.48c-2.456.016-5.39 1.087-5.39 4.17 0 3.082 3.36 3.52 4.533 3.724 1.226.213 2.136.44 2.028 1.088-.091.542-1.426 1.368-5.556-.494L1.17 17.9s2.126 1.583 5.686 1.583 5.555-1.945 5.604-3.923c.05-1.978-1.473-3.545-3.395-3.923-2.1-.412-3.409-.92-3.225-1.619.186-.704 2.13-1.067 5.104.481l1.137-2.768zM35.544 6.479c-2.935 0-4.13 1.371-4.13 1.371V6.491h-3.8v12.992h3.8V11.64c0-.834.714-1.525 1.92-1.674 1.207-.149 1.884.3 1.884 2.074v7.443h3.8v-8.26c0-1.395 0-4.744-3.474-4.744zM20.037 9.817c1.23 0 2.286.797 2.74 1.93h-5.48c.454-1.133 1.511-1.93 2.74-1.93zm1.938 5.558a2.857 2.857 0 0 1-1.938.769c-1.23 0-2.286-.797-2.74-1.93h8.939a6.694 6.694 0 0 0 0-2.468c-.562-2.996-3.127-5.267-6.2-5.267-3.48 0-6.313 2.916-6.313 6.501 0 3.586 2.832 6.503 6.314 6.503 2.298 0 4.31-1.273 5.415-3.169l-3.477-.939zM47.182 16.132c-1.63.207-2.986-1.09-2.986-3.157s1.365-3.421 2.986-3.158c1.259.205 2.562 1.227 2.562 3.455 0 1.744-.916 2.65-2.562 2.86zm2.63-15.94v7.91c-1.05-1.017-2.432-1.636-3.946-1.636-3.289 0-5.509 2.914-5.509 6.509 0 3.594 2.22 6.508 5.51 6.508 1.513 0 2.745-.303 3.946-1.042v1.042h4.037V.19h-4.037zM64.566 6.479l-2.533 6.41-2.628-6.41h-4.187l4.76 11.608-2.26 5.722h4.145L68.71 6.48h-4.145z" fill="#122B41"/>
</svg>
